<svg width="508" height="520" viewBox="0 0 508 520" fill="none" xmlns="http://www.w3.org/2000/svg">
<path d="M97.3503 139.735C109.559 134.935 115.565 121.148 110.766 108.939C105.967 96.7306 92.1792 90.7241 79.9706 95.5234C67.762 100.323 61.7555 114.11 66.5548 126.319C71.354 138.528 85.1416 144.534 97.3503 139.735Z" fill="#EBEBEB"/>
<path d="M111.388 124.561C109.178 122.634 106.677 121.071 103.977 119.929C99.2707 117.854 86.462 115.594 80.5085 112.592C72.1711 108.393 71.1335 103.86 71.183 101.476C73.2592 99.2336 75.7454 97.4097 78.5075 96.1027C79.1004 98.573 81.3361 105.984 95.1823 110.925C102.334 113.395 109.177 111.765 111.499 111.196C112.749 115.569 112.71 120.21 111.388 124.561V124.561Z" fill="#DBDBDB"/>
<path d="M101.692 137.518C97.1365 140.504 91.695 141.838 86.2753 141.296C80.8556 140.754 75.7857 138.37 71.9117 134.541C73.2613 133.816 74.6916 133.252 76.173 132.861C82.5589 131.305 89.587 134.356 92.1561 135.801C95.03 137.487 98.4101 138.096 101.692 137.518V137.518Z" fill="#DBDBDB"/>
<path d="M109.98 128.118L109.683 128.699L109.411 129.218C109.189 129.613 108.967 129.983 108.732 130.354C108.497 130.725 108.3 131.021 108.077 131.342L107.818 131.7L107.522 132.096L107.225 132.491L106.842 132.936L106.472 133.38L106.138 133.751C105.891 134.022 105.632 134.282 105.372 134.541C103.89 134.998 101.914 134.801 99.0113 133.652C94.7005 131.96 90.0439 127.884 81.7189 124.895C76.59 123.095 71.065 122.74 65.7481 123.869C64.46 119.133 64.6759 114.113 66.3657 109.504C67.885 109.504 72.7639 110.147 83.1764 118.743C86.4154 121.49 89.9296 123.895 93.663 125.92C102.556 130.576 107.695 129.193 109.844 128.118H110.004H109.98Z" fill="#DBDBDB"/>
<path d="M87.4007 137.012C87.8207 136.048 89.3029 135.776 90.711 136.369C92.1191 136.962 92.9219 138.271 92.4896 139.235C92.0573 140.198 90.5875 140.47 89.1794 139.877C87.7713 139.284 86.9808 138.037 87.4007 137.012Z" fill="#C7C7C7"/>
<path d="M94.1201 135.369C94.3671 134.825 95.2441 134.689 96.084 135.048C96.9239 135.406 97.418 136.159 97.1833 136.703C96.9486 137.246 96.0716 137.394 95.2194 137.024C94.3671 136.653 93.8854 135.912 94.1201 135.369Z" fill="#C7C7C7"/>
<path d="M75.7036 106.194C76.0618 105.366 77.3464 105.132 78.5816 105.675C79.8167 106.219 80.5208 107.318 80.1626 108.146C79.8044 108.973 78.5074 109.208 77.2723 108.664C76.0371 108.121 75.3331 107.022 75.7036 106.194Z" fill="#C7C7C7"/>
<path d="M80.0763 105.379C80.2192 105.152 80.4443 104.989 80.7045 104.925C80.9647 104.86 81.2398 104.899 81.472 105.033C81.7229 105.113 81.9345 105.284 82.0649 105.513C82.1954 105.742 82.235 106.011 82.1761 106.268C82.0004 106.44 81.7774 106.556 81.5354 106.601C81.2934 106.646 81.0437 106.617 80.8181 106.519C80.5924 106.421 80.4013 106.257 80.2692 106.05C80.137 105.842 80.0698 105.6 80.0763 105.354V105.379Z" fill="#C7C7C7"/>
<path d="M80.7801 107.577C80.8753 107.441 81.019 107.345 81.1819 107.311C81.3449 107.277 81.5148 107.306 81.6571 107.392C82.0276 107.553 82.2376 107.898 82.1141 108.158C81.9906 108.417 81.6077 108.504 81.2371 108.343C80.8666 108.183 80.669 107.849 80.7801 107.577Z" fill="#C7C7C7"/>
<path d="M95.6023 107.639C95.6528 107.218 95.8343 106.823 96.1212 106.511C96.4081 106.198 96.7859 105.983 97.2014 105.897C97.6168 105.811 98.0488 105.857 98.4366 106.029C98.8243 106.202 99.1481 106.491 99.3623 106.858C99.5764 107.224 99.6702 107.648 99.6303 108.071C99.5905 108.493 99.4189 108.892 99.14 109.212C98.861 109.532 98.4887 109.756 98.0756 109.853C97.6625 109.949 97.2294 109.914 96.8375 109.751C96.397 109.63 96.0215 109.341 95.7908 108.946C95.5601 108.552 95.4925 108.083 95.6023 107.639V107.639Z" fill="#C7C7C7"/>
<path d="M95.0342 110.875C95.0903 110.693 95.2004 110.533 95.3498 110.415C95.4992 110.297 95.6809 110.228 95.8707 110.216C96.0606 110.203 96.2497 110.249 96.413 110.347C96.5763 110.445 96.706 110.589 96.785 110.763C96.864 110.936 96.8886 111.129 96.8554 111.316C96.8223 111.503 96.733 111.676 96.5994 111.812C96.4658 111.947 96.2941 112.039 96.1073 112.074C95.9204 112.11 95.7271 112.088 95.5529 112.012C95.3365 111.926 95.1616 111.76 95.0649 111.548C94.9682 111.336 94.9572 111.095 95.0342 110.875V110.875Z" fill="#C7C7C7"/>
<path d="M454.568 384.404C463.388 384.404 470.538 377.254 470.538 368.433C470.538 359.613 463.388 352.463 454.568 352.463C445.747 352.463 438.597 359.613 438.597 368.433C438.597 377.254 445.747 384.404 454.568 384.404Z" fill="#EBEBEB"/>
<path d="M460.385 358.959C460.422 359.725 460.215 360.482 459.793 361.121C459.365 361.783 458.762 362.313 458.051 362.653C457.325 363.022 456.484 363.098 455.704 362.863C454.969 362.622 454.34 362.133 453.926 361.479C454.489 361.907 455.145 362.199 455.84 362.331C456.163 362.387 456.493 362.387 456.816 362.331C457.142 362.28 457.458 362.18 457.755 362.035L458.199 361.788C458.335 361.689 458.483 361.603 458.607 361.504C458.883 361.302 459.132 361.065 459.348 360.8C459.807 360.258 460.159 359.633 460.385 358.959V358.959Z" fill="#C7C7C7"/>
<path d="M454.642 359.873C454.568 359.34 454.686 358.797 454.975 358.342C455.267 357.862 455.698 357.483 456.211 357.255C456.467 357.125 456.746 357.048 457.032 357.026C457.318 357.005 457.606 357.041 457.878 357.131C458.409 357.296 458.853 357.665 459.113 358.157C458.708 357.901 458.253 357.733 457.779 357.663C457.354 357.608 456.923 357.686 456.544 357.885C455.683 358.285 455.004 358.995 454.642 359.873Z" fill="#C7C7C7"/>
<path d="M454.568 375.943C454.747 376.434 454.747 376.972 454.568 377.462C454.401 377.98 454.077 378.433 453.641 378.759C453.211 379.091 452.669 379.244 452.128 379.187C451.587 379.129 451.09 378.866 450.739 378.45C451.178 378.587 451.637 378.65 452.097 378.636C452.508 378.61 452.9 378.46 453.221 378.203C453.565 377.945 453.854 377.622 454.074 377.252C454.31 376.847 454.477 376.404 454.568 375.943V375.943Z" fill="#C7C7C7"/>
<path d="M451.257 377.759C451.169 377.596 451.114 377.417 451.095 377.233C451.076 377.048 451.093 376.862 451.146 376.684C451.256 376.311 451.481 375.983 451.789 375.745C451.95 375.622 452.136 375.533 452.333 375.484C452.531 375.435 452.737 375.427 452.937 375.461C453.12 375.493 453.294 375.562 453.45 375.664C453.605 375.766 453.737 375.899 453.839 376.054C453.532 376.007 453.22 376.007 452.913 376.054C452.66 376.091 452.422 376.193 452.221 376.351C451.756 376.703 451.418 377.197 451.257 377.759Z" fill="#C7C7C7"/>
<path d="M448.812 361.566C448.954 361.696 449.067 361.855 449.146 362.031C449.224 362.207 449.266 362.398 449.269 362.591C449.273 363.015 449.108 363.424 448.812 363.727C448.659 363.877 448.474 363.991 448.27 364.059C448.067 364.128 447.851 364.149 447.638 364.122C447.26 364.081 446.907 363.911 446.638 363.641C446.969 363.654 447.3 363.633 447.626 363.579C447.886 363.536 448.127 363.415 448.318 363.233C448.507 363.039 448.647 362.801 448.725 362.541C448.807 362.223 448.836 361.893 448.812 361.566Z" fill="#C7C7C7"/>
<path d="M446.836 363.122C446.718 363.044 446.62 362.94 446.549 362.818C446.479 362.696 446.437 362.559 446.428 362.418C446.421 362.263 446.446 362.109 446.501 361.965C446.556 361.82 446.641 361.689 446.749 361.578C446.862 361.465 447.001 361.38 447.154 361.331C447.306 361.281 447.468 361.269 447.626 361.294C447.762 361.314 447.893 361.361 448.01 361.433C448.126 361.506 448.227 361.601 448.306 361.714C448.081 361.74 447.858 361.781 447.639 361.838C447.489 361.882 447.354 361.962 447.243 362.072C447.131 362.187 447.039 362.321 446.972 362.467C446.899 362.679 446.853 362.899 446.836 363.122V363.122Z" fill="#C7C7C7"/>
<path d="M459.916 378.413C459.823 378.584 459.697 378.733 459.544 378.852C459.391 378.971 459.215 379.057 459.027 379.105C458.82 379.163 458.604 379.178 458.391 379.148C458.178 379.118 457.974 379.045 457.792 378.932C457.61 378.822 457.456 378.673 457.341 378.496C457.225 378.318 457.151 378.117 457.125 377.907C457.071 377.526 457.149 377.138 457.347 376.808C457.414 377.135 457.518 377.454 457.656 377.759C457.755 378 457.928 378.203 458.15 378.339C458.386 378.478 458.654 378.554 458.928 378.562C459.263 378.564 459.596 378.514 459.916 378.413V378.413Z" fill="#C7C7C7"/>
<path d="M457.927 376.869C457.976 376.739 458.054 376.621 458.154 376.525C458.255 376.429 458.376 376.357 458.508 376.314C458.655 376.265 458.81 376.249 458.963 376.266C459.117 376.283 459.265 376.333 459.397 376.412C459.535 376.494 459.652 376.607 459.738 376.742C459.824 376.877 459.876 377.031 459.891 377.191C459.911 377.466 459.827 377.739 459.657 377.956C459.57 377.745 459.471 377.539 459.36 377.339C459.291 377.204 459.183 377.092 459.051 377.018C458.912 376.932 458.757 376.877 458.594 376.857C458.373 376.825 458.148 376.829 457.927 376.869V376.869Z" fill="#C7C7C7"/>
<path d="M465.388 367.173C465.404 367.365 465.382 367.557 465.323 367.74C465.263 367.922 465.168 368.091 465.042 368.236C464.906 368.394 464.74 368.524 464.553 368.617C464.366 368.71 464.163 368.765 463.955 368.779C463.741 368.791 463.528 368.754 463.331 368.671C463.134 368.587 462.958 368.459 462.819 368.297C462.556 368.019 462.402 367.655 462.386 367.272C462.623 367.505 462.884 367.712 463.164 367.89C463.387 368.026 463.645 368.095 463.906 368.087C464.179 368.067 464.442 367.978 464.671 367.828C464.945 367.652 465.187 367.43 465.388 367.173V367.173Z" fill="#C7C7C7"/>
<path d="M462.868 367.013C462.835 366.876 462.834 366.735 462.864 366.598C462.894 366.461 462.954 366.332 463.041 366.222C463.139 366.101 463.261 366.002 463.399 365.93C463.537 365.858 463.689 365.814 463.844 365.802C464.003 365.792 464.163 365.82 464.309 365.884C464.456 365.949 464.584 366.048 464.684 366.173C464.857 366.389 464.941 366.663 464.918 366.939C464.729 366.809 464.531 366.694 464.326 366.593C464.188 366.523 464.035 366.489 463.881 366.494C463.718 366.507 463.56 366.549 463.412 366.618C463.216 366.728 463.034 366.861 462.868 367.013V367.013Z" fill="#C7C7C7"/>
<path d="M444.217 370.78C444.239 370.972 444.221 371.167 444.163 371.352C444.106 371.537 444.011 371.708 443.884 371.855C443.748 372.013 443.581 372.143 443.395 372.236C443.208 372.329 443.005 372.384 442.797 372.398C442.581 372.409 442.366 372.372 442.167 372.289C441.968 372.205 441.791 372.078 441.648 371.916C441.395 371.632 441.243 371.271 441.216 370.891C441.459 371.121 441.724 371.328 442.006 371.509C442.228 371.646 442.486 371.715 442.747 371.706C443.02 371.684 443.283 371.595 443.513 371.447C443.789 371.273 444.029 371.047 444.217 370.78Z" fill="#C7C7C7"/>
<path d="M441.71 370.632C441.677 370.496 441.675 370.354 441.705 370.217C441.735 370.08 441.796 369.951 441.883 369.841C441.977 369.72 442.097 369.62 442.233 369.547C442.369 369.475 442.519 369.432 442.673 369.421C442.833 369.409 442.993 369.437 443.139 369.502C443.286 369.566 443.414 369.666 443.513 369.792C443.603 369.897 443.67 370.019 443.713 370.15C443.755 370.282 443.771 370.42 443.76 370.558C443.571 370.428 443.373 370.313 443.167 370.212C443.031 370.137 442.877 370.103 442.722 370.113C442.56 370.126 442.401 370.168 442.253 370.237C442.057 370.347 441.875 370.48 441.71 370.632Z" fill="#C7C7C7"/>
<path d="M398.528 18.6204L402.777 14.3838C403.359 13.8003 403.686 13.0096 403.686 12.1852C403.686 11.3608 403.359 10.5701 402.777 9.98659V9.98659C402.49 9.6953 402.147 9.46399 401.77 9.30612C401.393 9.14824 400.988 9.06694 400.578 9.06694C400.169 9.06694 399.764 9.14824 399.387 9.30612C399.009 9.46399 398.667 9.6953 398.38 9.98659L394.131 14.2232C393.549 14.8068 393.222 15.5975 393.222 16.4218C393.222 17.2462 393.549 18.0369 394.131 18.6204V18.6204C394.714 19.2027 395.505 19.5298 396.329 19.5298C397.154 19.5298 397.945 19.2027 398.528 18.6204V18.6204Z" fill="#EBEBEB"/>
<path d="M456.445 60.6656L459.138 55.3049C459.324 54.9406 459.436 54.5428 459.467 54.1348C459.499 53.7267 459.448 53.3166 459.32 52.9281C459.191 52.5396 458.986 52.1806 458.718 51.872C458.449 51.5633 458.122 51.3111 457.755 51.1301V51.1301C457.39 50.9455 456.992 50.8348 456.585 50.8045C456.177 50.7742 455.767 50.8247 455.379 50.9533C454.991 51.0819 454.633 51.2859 454.324 51.5537C454.015 51.8214 453.762 52.1476 453.58 52.5135L450.887 57.8741C450.521 58.6119 450.461 59.4643 450.72 60.2461C450.979 61.0279 451.536 61.6758 452.27 62.049C453.008 62.4184 453.861 62.4802 454.644 62.2209C455.427 61.9615 456.075 61.4022 456.445 60.6656V60.6656Z" fill="#EBEBEB"/>
<path d="M419.39 6.63923L422.577 6.19457C422.982 6.137 423.371 6.00029 423.723 5.79222C424.075 5.58415 424.382 5.30882 424.628 4.98193C424.873 4.65504 425.052 4.283 425.154 3.88706C425.255 3.49112 425.278 3.07903 425.22 2.67433V2.67433C425.163 2.26962 425.026 1.88021 424.818 1.52834C424.61 1.17647 424.335 0.869032 424.008 0.623578C423.681 0.378125 423.309 0.199462 422.913 0.0977974C422.517 -0.00386697 422.105 -0.0265449 421.7 0.0310594L418.513 0.488076C418.109 0.545639 417.719 0.682356 417.367 0.890422C417.015 1.09849 416.708 1.37383 416.463 1.70072C416.217 2.0276 416.038 2.39964 415.937 2.79558C415.835 3.19152 415.812 3.60361 415.87 4.00831V4.00831C415.928 4.41261 416.064 4.80156 416.273 5.15284C416.481 5.50412 416.756 5.81079 417.083 6.05526C417.411 6.29972 417.783 6.47716 418.179 6.57737C418.575 6.67759 418.986 6.69861 419.39 6.63923V6.63923Z" fill="#EBEBEB"/>
<path d="M394.02 48.7339L393.563 45.5348C393.444 44.7197 393.006 43.9851 392.346 43.492C391.687 42.9988 390.858 42.7873 390.043 42.9039V42.9039C389.638 42.9614 389.248 43.0982 388.897 43.3062C388.545 43.5143 388.237 43.7896 387.992 44.1165C387.746 44.4434 387.568 44.8155 387.466 45.2114C387.364 45.6073 387.342 46.0194 387.399 46.4241L387.856 49.6109C387.976 50.4268 388.413 51.1624 389.072 51.6575C389.731 52.1527 390.56 52.3671 391.377 52.2541V52.2541C391.781 52.1966 392.171 52.0599 392.523 51.8518C392.874 51.6437 393.182 51.3684 393.427 51.0415C393.673 50.7146 393.851 50.3426 393.953 49.9466C394.055 49.5507 394.077 49.1386 394.02 48.7339V48.7339Z" fill="#EBEBEB"/>
<path d="M462.411 42.4469V38.3461C462.411 36.8726 461.217 35.6781 459.743 35.6781H458.866C457.393 35.6781 456.198 36.8726 456.198 38.3461V42.4469C456.198 43.9203 457.393 45.1148 458.866 45.1148H459.743C461.217 45.1148 462.411 43.9203 462.411 42.4469Z" fill="#EBEBEB"/>
<path d="M413.56 75.7594L416.673 76.5993C417.469 76.8107 418.316 76.698 419.029 76.2859C419.742 75.8738 420.263 75.1959 420.477 74.4007V74.4007C420.584 74.0057 420.611 73.5936 420.558 73.188C420.506 72.7823 420.373 72.3911 420.169 72.0366C419.965 71.6821 419.693 71.3714 419.368 71.1221C419.044 70.8729 418.674 70.69 418.279 70.584L415.166 69.7565C414.772 69.6501 414.361 69.6226 413.956 69.6757C413.551 69.7287 413.161 69.8611 412.807 70.0654C412.454 70.2697 412.144 70.5418 411.896 70.8661C411.648 71.1904 411.466 71.5604 411.362 71.9551V71.9551C411.255 72.3492 411.228 72.7605 411.281 73.1653C411.334 73.5701 411.466 73.9605 411.671 74.314C411.875 74.6674 412.147 74.9771 412.471 75.2251C412.796 75.4732 413.166 75.6547 413.56 75.7594V75.7594Z" fill="#EBEBEB"/>
<path d="M424.331 74.9319C444.148 74.9319 460.213 58.8671 460.213 39.0502C460.213 19.2332 444.148 3.16843 424.331 3.16843C404.514 3.16843 388.449 19.2332 388.449 39.0502C388.449 58.8671 404.514 74.9319 424.331 74.9319Z" fill="#EBEBEB"/>
<path d="M437.387 17.7681C437.476 19.4914 437.008 21.1976 436.053 22.6347C435.096 24.1181 433.75 25.3102 432.162 26.0808C430.526 26.9018 428.638 27.0611 426.888 26.5255C425.23 26.0026 423.81 24.914 422.873 23.4499C424.153 24.3903 425.625 25.0357 427.184 25.3397C427.911 25.4693 428.656 25.4693 429.383 25.3397C430.111 25.2344 430.816 25.009 431.47 24.6727C431.813 24.5086 432.147 24.3272 432.471 24.1292C432.792 23.9193 433.113 23.7216 433.409 23.4869C434.021 23.0261 434.58 22.5001 435.077 21.9183C436.11 20.6988 436.895 19.2889 437.387 17.7681V17.7681Z" fill="#C7C7C7"/>
<path d="M424.492 19.8308C424.324 18.6346 424.587 17.4178 425.233 16.3971C425.874 15.3276 426.815 14.4689 427.938 13.9267C428.507 13.6384 429.127 13.4659 429.763 13.4192C430.399 13.3726 431.038 13.4527 431.643 13.655C432.815 14.0421 433.79 14.8706 434.361 15.9648C433.451 15.4045 432.439 15.0308 431.384 14.8655C430.433 14.7545 429.471 14.9263 428.617 15.3595C426.732 16.283 425.261 17.8779 424.492 19.8308Z" fill="#C7C7C7"/>
<path d="M412.337 44.4725C412.78 45.5649 412.81 46.7806 412.424 47.8939C412.045 49.0509 411.321 50.0639 410.349 50.7966C409.854 51.1848 409.287 51.4691 408.68 51.6325C408.073 51.796 407.439 51.8351 406.816 51.7477C405.644 51.5894 404.574 50.9991 403.815 50.0925C404.802 50.4196 405.839 50.5661 406.878 50.5248C407.78 50.4521 408.64 50.1124 409.348 49.5491C410.12 48.9683 410.77 48.2424 411.263 47.4122C411.787 46.501 412.15 45.5066 412.337 44.4725V44.4725Z" fill="#C7C7C7"/>
<path d="M404.902 48.5486C404.509 47.8082 404.424 46.9424 404.667 46.14C404.9 45.301 405.403 44.5626 406.1 44.0402C406.46 43.7601 406.874 43.5583 407.317 43.4477C407.759 43.3371 408.22 43.3201 408.669 43.3979C409.088 43.4599 409.49 43.6096 409.848 43.8374C410.205 44.0651 410.511 44.3657 410.744 44.7196C410.053 44.5795 409.345 44.5461 408.644 44.6208C408.077 44.705 407.54 44.9347 407.088 45.2878C406.02 46.1042 405.251 47.2505 404.902 48.5486V48.5486Z" fill="#C7C7C7"/>
<path d="M399.467 36.4933C399.785 36.7862 400.041 37.1411 400.217 37.5361C400.393 37.9312 400.487 38.3581 400.492 38.7907C400.492 39.7152 400.128 40.6026 399.479 41.2611C399.141 41.6051 398.727 41.8656 398.27 42.0221C397.814 42.1786 397.327 42.2267 396.848 42.1627C395.995 42.0716 395.198 41.6927 394.588 41.0881C395.336 41.1066 396.084 41.057 396.824 40.9399C397.406 40.8449 397.945 40.5733 398.368 40.1618C398.797 39.7288 399.107 39.1929 399.269 38.6055C399.453 37.9175 399.52 37.2035 399.467 36.4933V36.4933Z" fill="#C7C7C7"/>
<path d="M395.02 39.9765C394.76 39.7962 394.545 39.5589 394.391 39.2828C394.237 39.0066 394.148 38.6989 394.131 38.3831C394.112 38.0374 394.166 37.6917 394.29 37.3682C394.413 37.0448 394.603 36.7509 394.847 36.5056C395.096 36.2491 395.404 36.0575 395.745 35.9476C396.085 35.8378 396.447 35.8131 396.799 35.8757C397.105 35.9195 397.399 36.0241 397.664 36.1831C397.929 36.3422 398.16 36.5527 398.343 36.8021C397.831 36.8713 397.324 36.9703 396.824 37.0985C396.497 37.1902 396.199 37.3647 395.959 37.6049C395.701 37.8634 395.495 38.1696 395.354 38.5066C395.177 38.9795 395.065 39.4738 395.02 39.9765V39.9765Z" fill="#C7C7C7"/>
<path d="M448.627 25.8461C448.667 26.2765 448.62 26.7106 448.488 27.1223C448.357 27.5341 448.143 27.915 447.861 28.2423C447.554 28.6047 447.177 28.9009 446.752 29.1133C446.328 29.3256 445.864 29.4495 445.391 29.4775C444.911 29.5035 444.431 29.4203 443.989 29.2342C443.546 29.048 443.151 28.7638 442.834 28.4029C442.255 27.768 441.914 26.9515 441.87 26.0931C442.412 26.6083 443.003 27.0677 443.637 27.4642C444.127 27.7846 444.707 27.9404 445.292 27.9088C445.901 27.8679 446.491 27.6769 447.009 27.353C447.626 26.9414 448.172 26.4325 448.627 25.8461V25.8461Z" fill="#C7C7C7"/>
<path d="M442.994 25.5127C442.917 25.2067 442.911 24.887 442.978 24.5785C443.044 24.27 443.181 23.981 443.377 23.734C443.591 23.4616 443.86 23.2372 444.167 23.0755C444.473 22.9137 444.81 22.8183 445.156 22.7953C445.515 22.7738 445.874 22.8389 446.203 22.985C446.532 23.1312 446.821 23.3542 447.046 23.6352C447.244 23.8717 447.393 24.1454 447.484 24.4402C447.575 24.735 447.607 25.045 447.577 25.3521C447.149 25.0643 446.704 24.8044 446.243 24.5739C445.939 24.4131 445.597 24.3404 445.255 24.364C444.891 24.3886 444.535 24.4808 444.205 24.6357C443.765 24.8739 443.358 25.1688 442.994 25.5127V25.5127Z" fill="#C7C7C7"/>
<path d="M438.945 46.175C440.734 42.1626 438.952 37.4687 434.964 35.6908C430.977 33.913 426.294 35.7245 424.505 39.7369C422.716 43.7493 424.498 48.4432 428.486 50.2211C432.473 51.9989 437.156 50.1874 438.945 46.175Z" fill="#DBDBDB"/>
<path d="M435.447 39.2354C436.48 39.6976 437.388 40.3973 438.099 41.2774C438.809 42.1575 439.302 43.1931 439.536 44.2996C439.754 42.987 439.637 41.6405 439.197 40.3847C438.757 39.1289 438.008 38.0042 437.018 37.1146C436.029 36.225 434.831 35.5991 433.536 35.2948C432.24 34.9906 430.889 35.0177 429.607 35.3737C428.325 35.7298 427.153 36.4032 426.2 37.3318C425.247 38.2604 424.543 39.4143 424.154 40.6868C423.765 41.9592 423.703 43.3093 423.973 44.6121C424.244 45.915 424.838 47.1287 425.702 48.141C425.117 46.4272 425.205 44.5551 425.949 42.9039C426.725 41.1603 428.16 39.7952 429.94 39.1076C431.721 38.4201 433.701 38.466 435.447 39.2354Z" fill="#C7C7C7"/>
<path d="M442.71 44.3737C442.756 46.4825 442.148 48.5538 440.969 50.3025C439.772 52.0918 438.122 53.5322 436.188 54.4774C434.204 55.4661 431.92 55.6733 429.79 55.0579C427.774 54.4136 426.033 53.1081 424.85 51.3524C426.395 52.5763 428.206 53.4222 430.136 53.8227C430.599 53.8931 431.065 53.9384 431.532 53.9586C431.991 53.9651 432.45 53.9279 432.903 53.8474C433.788 53.7034 434.647 53.4243 435.447 53.0199C435.867 52.8099 436.3 52.5752 436.683 52.3405C437.065 52.1059 437.485 51.8218 437.844 51.513C438.602 50.932 439.293 50.2693 439.906 49.5367C441.188 48.0281 442.143 46.27 442.71 44.3737V44.3737Z" fill="#C7C7C7"/>
<path d="M451.394 47.3258C451.965 47.4627 452.564 47.4268 453.115 47.2225C453.666 47.0182 454.144 46.6549 454.488 46.1785C454.832 45.7022 455.026 45.1344 455.047 44.5472C455.068 43.96 454.913 43.3799 454.604 42.8806C454.294 42.3812 453.843 41.9852 453.308 41.7427C452.772 41.5003 452.177 41.4224 451.598 41.5188C451.018 41.6153 450.48 41.8818 450.052 42.2846C449.625 42.6873 449.326 43.2081 449.195 43.7808C449.017 44.5424 449.149 45.3435 449.561 46.0081C449.973 46.6728 450.632 47.1467 451.394 47.3258V47.3258Z" fill="#DBDBDB"/>
<path d="M453.16 42.8051C453.572 42.9015 453.956 43.0938 454.28 43.3663C454.604 43.6389 454.859 43.984 455.025 44.3738C455.006 43.7172 454.772 43.085 454.36 42.5741C453.947 42.0631 453.378 41.7017 452.74 41.5452C451.973 41.3718 451.169 41.5099 450.505 41.9292C449.84 42.3484 449.369 43.0144 449.195 43.7809C449.066 44.3243 449.095 44.8934 449.279 45.4208C449.463 45.9483 449.794 46.4122 450.233 46.7576C449.89 46.1724 449.789 45.4772 449.949 44.8184C450.107 44.1256 450.535 43.5243 451.137 43.1467C451.74 42.7691 452.467 42.6462 453.16 42.8051Z" fill="#C7C7C7"/>
<path d="M456.174 44.1514C456.384 44.9204 456.332 45.7375 456.025 46.4735C455.728 47.2354 455.223 47.8987 454.568 48.388C453.898 48.9088 453.052 49.148 452.209 49.055C451.409 48.9607 450.669 48.584 450.121 47.9928C450.784 48.2957 451.505 48.4516 452.233 48.4498C452.911 48.4219 453.562 48.1845 454.099 47.7704C454.668 47.3355 455.144 46.7914 455.501 46.17C455.857 45.5486 456.086 44.8623 456.174 44.1514V44.1514Z" fill="#C7C7C7"/>
<path d="M431.05 66.5326C431.882 66.5803 432.71 66.38 433.428 65.957C434.146 65.534 434.723 64.9075 435.085 64.1567C435.447 63.4058 435.578 62.5645 435.462 61.7391C435.345 60.9137 434.986 60.1415 434.431 59.5201C433.875 58.8988 433.148 58.4562 432.34 58.2485C431.533 58.0408 430.682 58.0773 429.896 58.3534C429.109 58.6294 428.423 59.1326 427.922 59.7993C427.422 60.4659 427.131 61.2661 427.085 62.0984C427.025 63.2118 427.408 64.3038 428.151 65.1351C428.894 65.9663 429.937 66.4689 431.05 66.5326V66.5326Z" fill="#DBDBDB"/>
<path d="M432.409 59.7639C433.006 59.7969 433.588 59.9707 434.105 60.2713C434.622 60.5718 435.061 60.9905 435.386 61.4931C435.244 60.8012 434.931 60.156 434.474 59.6173C434.018 59.0787 433.432 58.6638 432.773 58.4113C432.113 58.1587 431.401 58.0766 430.701 58.1724C430.001 58.2682 429.337 58.539 428.77 58.9596C428.203 59.3802 427.75 59.9371 427.455 60.5788C427.16 61.2204 427.032 61.9261 427.082 62.6306C427.132 63.335 427.359 64.0155 427.742 64.609C428.124 65.2026 428.651 65.69 429.272 66.0262C428.799 65.454 428.503 64.7569 428.42 64.0197C428.336 63.2824 428.469 62.5368 428.801 61.8734C429.133 61.21 429.651 60.6575 430.292 60.283C430.932 59.9085 431.668 59.7281 432.409 59.7639V59.7639Z" fill="#C7C7C7"/>
<path d="M436.954 60.9003C437.359 61.9388 437.441 63.0754 437.189 64.1612C436.942 65.2723 436.4 66.2963 435.621 67.1256C434.835 67.9924 433.748 68.5269 432.582 68.6201C431.462 68.6979 430.349 68.3978 429.42 67.7679C430.414 68.0994 431.474 68.1842 432.508 68.0149C433.485 67.83 434.377 67.3365 435.052 66.6068C435.749 65.8619 436.279 64.9778 436.609 64.013C436.938 63.0105 437.056 61.9506 436.954 60.9003V60.9003Z" fill="#C7C7C7"/>
<path d="M412.276 25.8462C410.386 28.7488 406.186 29.3664 402.913 27.2172C399.64 25.068 398.503 20.9796 400.443 18.0769C402.382 15.1743 406.532 14.569 409.818 16.7059C413.103 18.8427 414.178 22.9929 412.276 25.8462Z" fill="#DBDBDB"/>
<path d="M401.851 20.9054C401.356 21.6884 401.068 22.5842 401.014 23.5088C400.96 24.4335 401.142 25.3566 401.542 26.1919C400.471 25.1829 399.776 23.8397 399.569 22.3829C399.363 20.9262 399.658 19.4426 400.406 18.1757C402.295 15.273 406.495 14.6554 409.781 16.8046C410.876 17.4754 411.772 18.427 412.376 19.5607C412.98 20.6944 413.269 21.969 413.214 23.2522C412.735 21.7236 411.734 20.412 410.386 19.5467C407.384 17.6569 403.568 18.2127 401.851 20.9054Z" fill="#C7C7C7"/>
<path d="M414.598 21.1031C415.081 21.8527 415.411 22.6902 415.57 23.5676C415.729 24.4451 415.714 25.3453 415.524 26.2167C415.318 27.1159 414.917 27.9591 414.351 28.6871C413.785 29.4337 413.091 30.0736 412.3 30.5769C411.478 31.0376 410.578 31.3432 409.645 31.4785C408.744 31.5902 407.833 31.5653 406.94 31.4044C405.22 31.0953 403.596 30.389 402.197 29.3417C403.786 29.8036 405.423 30.0854 407.076 30.1816C408.61 30.2942 410.145 29.9641 411.497 29.2305C412.144 28.8553 412.725 28.3753 413.214 27.8101C413.717 27.2406 414.111 26.5832 414.375 25.8709C414.88 24.331 414.956 22.6832 414.598 21.1031V21.1031Z" fill="#C7C7C7"/>
<path d="M460.355 468.457C467.985 439.991 451.094 410.729 422.628 403.098C394.161 395.468 364.899 412.359 357.269 440.826C349.639 469.292 366.53 498.554 394.997 506.184C423.463 513.814 452.725 496.923 460.355 468.457Z" fill="#455A64"/>
<path d="M456.124 438.257C449.602 437.594 443.016 437.961 436.608 439.344C425.319 441.605 398.973 453.932 384.274 456.081C363.61 459.119 355.865 452.165 352.95 447.818C353.865 441.043 356.08 434.509 359.472 428.574C363.647 432.217 377.369 443.05 408.99 434.169C425.294 429.574 435.657 417.692 439.177 413.665C447.075 420.061 452.959 428.6 456.124 438.257V438.257Z" fill="#37474F"/>
<path d="M455.05 474.436C450.559 485.766 442.313 495.211 431.691 501.187C421.068 507.164 408.716 509.31 396.7 507.266C398.221 504.193 400.108 501.315 402.32 498.694C412.004 487.578 428.802 484.169 435.361 483.502C442.796 482.929 449.78 479.713 455.05 474.436V474.436Z" fill="#37474F"/>
<path d="M458.125 446.595C458.212 447.077 458.273 447.546 458.335 448.028C458.397 448.509 458.446 448.905 458.496 449.337C458.594 450.325 458.681 451.313 458.718 452.289C458.755 453.265 458.792 454.068 458.792 454.932C458.792 455.266 458.792 455.587 458.792 455.92C458.792 456.254 458.792 456.661 458.792 457.02C458.792 457.378 458.792 457.761 458.792 458.131C458.792 458.502 458.73 458.996 458.693 459.441C458.656 459.885 458.619 460.305 458.57 460.676C458.52 461.046 458.471 461.417 458.434 461.787C458.323 462.603 458.199 463.393 458.051 464.196C455.926 466.926 452.048 469.137 445.279 470.755C435.2 473.225 421.453 471.743 402.345 477.005C390.648 480.317 380.084 486.772 371.799 495.668V495.668C363.35 488.668 357.286 479.215 354.445 468.618C357.15 466.555 366.982 461.54 397.071 463.875C406.528 464.724 416.047 464.6 425.479 463.504C447.713 460.589 455.383 451.437 457.927 446.694C457.992 446.657 458.058 446.625 458.125 446.595Z" fill="#37474F"/>
<path d="M384.064 432.86C384.521 435.182 382.15 437.59 378.778 438.233C375.406 438.875 372.318 437.541 371.861 435.219C371.404 432.897 373.787 430.501 377.147 429.846C380.507 429.191 383.57 430.55 384.064 432.86Z" fill="#263238"/>
<path d="M373.824 444.495C374.072 445.804 372.589 447.175 370.613 447.571C368.637 447.966 366.747 447.225 366.5 445.915C366.253 444.606 367.673 443.235 369.699 442.84C371.725 442.445 373.565 443.198 373.824 444.495Z" fill="#263238"/>
<path d="M444.76 474.917C445.143 476.894 443.056 478.956 440.116 479.537C437.177 480.117 434.459 478.956 434.076 476.98C433.693 475.004 435.768 472.929 438.72 472.361C441.673 471.792 444.378 472.978 444.76 474.917Z" fill="#263238"/>
<path d="M437.733 481.97C437.943 483.02 436.979 484.095 435.583 484.366C435.013 484.549 434.394 484.503 433.857 484.238C433.32 483.973 432.907 483.51 432.705 482.946C432.495 481.896 433.459 480.821 434.855 480.55C435.425 480.367 436.044 480.413 436.581 480.678C437.117 480.943 437.53 481.407 437.733 481.97V481.97Z" fill="#263238"/>
<path d="M433.644 478.808C433.767 479.438 433.15 480.043 432.26 480.266C431.371 480.488 430.556 480.056 430.432 479.426C430.309 478.796 430.926 478.19 431.816 477.968C432.705 477.746 433.52 478.178 433.644 478.808Z" fill="#263238"/>
<path d="M406.235 497.484C406.581 499.263 405 501.066 402.53 501.523C400.06 501.98 397.984 500.905 397.589 499.139C397.194 497.373 398.824 495.569 401.233 495.112C403.642 494.655 405.902 495.718 406.235 497.484Z" fill="#263238"/>
<path d="M403.197 490.802C403.327 491.21 403.33 491.648 403.206 492.058C403.081 492.468 402.834 492.83 402.499 493.097C402.163 493.364 401.755 493.522 401.327 493.551C400.899 493.58 400.473 493.478 400.105 493.259C399.737 493.04 399.444 492.714 399.265 492.324C399.086 491.935 399.03 491.5 399.105 491.078C399.179 490.656 399.379 490.266 399.68 489.961C399.981 489.656 400.368 489.449 400.788 489.369C401.041 489.304 401.303 489.29 401.561 489.327C401.819 489.364 402.067 489.451 402.291 489.584C402.514 489.718 402.71 489.894 402.865 490.103C403.021 490.311 403.134 490.549 403.197 490.802V490.802Z" fill="#263238"/>
<path d="M458.718 452.289C444.049 460.091 428.938 467.032 413.461 473.077C397.655 479.398 381.482 484.76 365.03 489.134C339.573 495.755 321.429 496.903 319.094 490.987C316.76 485.07 330.445 473.583 352.888 461.244C353.037 462.479 353.234 463.714 353.469 464.949L353.765 466.358C342.377 473.596 336.053 479.858 337.474 483.465C338.894 487.071 348.071 487.343 361.671 484.7C374.986 482.131 392.55 476.844 411.361 469.421C430.173 461.997 446.65 453.808 458.125 446.558C469.81 439.208 476.319 432.81 474.874 429.154C473.429 425.498 464.585 425.313 451.406 427.783C450.494 426.222 449.496 424.712 448.417 423.262C473.75 416.704 492.302 415.703 494.637 421.607C496.971 427.511 482.483 439.48 458.718 452.289Z" fill="#263238"/>
<path d="M458.743 457.007C444.357 464.53 429.594 471.308 414.511 477.314V477.314C399.539 483.367 384.264 488.644 368.748 493.124C333.99 503.005 308.151 504.969 304.791 496.607C301.431 488.245 321.083 472.151 352.506 455.463C352.506 456.279 352.506 457.106 352.604 457.934C326.53 472.311 310.609 485.947 313.474 493.124C316.34 500.3 337.721 499.139 366.969 491.308C398.851 482.481 429.645 470.119 458.78 454.451C485.212 439.95 501.381 426.153 498.478 418.927C495.576 411.701 474.8 412.887 446.132 420.446C445.6 419.816 445.045 419.211 444.476 418.594C478.604 408.996 503.864 407.193 507.174 415.456C510.484 423.719 490.585 440.184 458.743 457.007Z" fill="#37474F"/>
<path d="M181.249 202.056C175.781 201.211 170.472 199.545 165.501 197.115C141.588 185.504 139.019 157.367 136.301 127.575C133.831 100.129 131.2 71.7575 112.005 54.6256C72.0476 19.0033 9.05384 44.979 8.4239 45.2507L3.24854 33.0472C16.3432 27.8984 30.0833 24.5735 44.0833 23.1658C74.9626 20.0532 101.543 27.4889 120.812 44.6825C143.922 65.2852 146.887 97.7084 149.493 126.315C151.963 153.402 154.1 176.796 171.281 185.134C207.299 202.612 231.113 158.961 232.101 157.095L243.81 163.271C238.469 172.743 231.547 181.232 223.344 188.37C210.115 199.647 195.824 204.242 181.249 202.056Z" fill="#EBA417"/>
<path opacity="0.1" d="M181.249 202.056C175.781 201.211 170.472 199.545 165.501 197.115C141.588 185.504 139.019 157.367 136.301 127.575C133.831 100.129 131.2 71.7575 112.005 54.6256C72.0476 19.0033 9.05384 44.979 8.4239 45.2507L3.24854 33.0472C16.3432 27.8984 30.0833 24.5735 44.0833 23.1658C74.9626 20.0532 101.543 27.4889 120.812 44.6825C143.922 65.2852 146.887 97.7084 149.493 126.315C151.963 153.402 154.1 176.796 171.281 185.134C207.299 202.612 231.113 158.961 232.101 157.095L243.81 163.271C238.469 172.743 231.547 181.232 223.344 188.37C210.115 199.647 195.824 204.242 181.249 202.056Z" fill="black"/>
<path opacity="0.1" d="M243.81 163.308C238.47 172.778 231.548 181.262 223.344 188.395C215.389 195.164 207.039 199.511 198.48 201.438L183.571 188.889C212.622 192.78 231.224 158.689 232.113 157.058L243.81 163.308Z" fill="black"/>
<path d="M285.584 227.797C284.41 228.488 214.475 205.181 211.474 203.019C211.33 202.917 211.202 202.797 211.091 202.661C207.669 199.289 194.737 175.487 193.798 173.622C191.526 168.867 261.992 109.48 275.097 103.971C278.383 102.587 321.429 117.978 327.876 124.228C330.643 126.908 335.843 137.753 335.559 139.235C335.102 141.359 286.77 227.105 285.584 227.797Z" fill="#EBA417"/>
<path opacity="0.1" d="M285.584 227.797C284.41 228.488 214.475 205.181 211.474 203.019C211.33 202.917 211.202 202.797 211.091 202.661C207.669 199.289 194.737 175.487 193.798 173.622C191.526 168.867 261.992 109.48 275.097 103.971C278.383 102.587 321.429 117.978 327.876 124.228C330.643 126.908 335.843 137.753 335.559 139.235C335.102 141.359 286.77 227.105 285.584 227.797Z" fill="black"/>
<path opacity="0.1" d="M285.584 227.797C284.411 228.488 214.475 205.181 211.474 203.019C211.331 202.917 211.202 202.797 211.091 202.661C223.739 188.024 283.175 119.386 284.238 119.213C285.3 119.04 326.036 134.838 335.571 139.247C335.102 141.359 286.77 227.105 285.584 227.797Z" fill="black"/>
<path d="M184.065 370.002L128.334 398.077C117.662 403.376 108.399 408.231 103.841 411.183C103.817 411.174 103.791 411.174 103.767 411.183C102.037 412.294 101 413.122 100.852 413.653V413.752C100.284 418.001 140.217 504.574 142.625 507.118C145.034 509.663 152.507 503.005 153.631 498.41C154.755 493.816 154.285 453.821 154.285 453.821L209.683 425.251L184.065 370.002Z" fill="#455A64"/>
<path d="M92.3785 417.395L94.3671 421.904C94.8856 421.715 95.4333 421.619 95.9852 421.62C97.0584 421.622 98.1002 421.982 98.9453 422.644C99.7904 423.305 100.39 424.23 100.65 425.271C100.91 426.313 100.814 427.411 100.378 428.392C99.9429 429.373 99.1922 430.18 98.2455 430.686L100.037 434.787C100.573 434.582 101.142 434.478 101.716 434.478C102.794 434.477 103.841 434.839 104.689 435.506C105.536 436.172 106.135 437.104 106.389 438.152C106.643 439.2 106.537 440.302 106.088 441.282C105.639 442.263 104.874 443.064 103.915 443.556L105.718 447.669C106.262 447.444 106.846 447.331 107.435 447.336C108.71 447.336 109.932 447.842 110.833 448.743C111.734 449.644 112.24 450.866 112.24 452.141C112.246 453.034 112 453.912 111.53 454.672C111.061 455.432 110.386 456.045 109.584 456.439L111.388 460.528C111.959 460.308 112.566 460.195 113.179 460.194C114.27 460.19 115.33 460.558 116.184 461.237C117.038 461.916 117.636 462.865 117.879 463.929C118.122 464.993 117.996 466.108 117.521 467.09C117.046 468.072 116.251 468.864 115.266 469.334L117.07 473.423C117.648 473.179 118.27 473.054 118.898 473.052C119.994 473.048 121.059 473.418 121.916 474.103C122.772 474.787 123.369 475.744 123.607 476.814C123.845 477.884 123.71 479.004 123.224 479.987C122.738 480.969 121.931 481.757 120.936 482.217L122.739 486.306C123.328 486.038 123.969 485.903 124.616 485.91C125.713 485.915 126.774 486.293 127.626 486.983C128.478 487.672 129.07 488.632 129.303 489.703C129.536 490.774 129.397 491.892 128.909 492.873C128.421 493.855 127.612 494.64 126.617 495.1L128.421 499.201C129.027 498.914 129.689 498.766 130.36 498.768C131.461 498.775 132.526 499.158 133.378 499.854C134.231 500.55 134.819 501.517 135.046 502.593C135.273 503.67 135.124 504.793 134.624 505.773C134.124 506.754 133.304 507.533 132.299 507.983L133.991 511.837L142.638 507.155L100.852 413.69L92.3785 417.395Z" fill="#37474F"/>
<path d="M119.824 405.266C121.261 407.675 122.18 410.356 122.525 413.14C122.869 415.923 122.631 418.748 121.825 421.434C120.367 425.832 117.477 430.525 112.833 432.922C112.697 432.996 112.561 432.749 112.685 432.662C120.59 426.585 123.801 414.517 119.552 405.414C119.544 405.38 119.548 405.344 119.562 405.312C119.576 405.28 119.601 405.254 119.632 405.237C119.663 405.22 119.698 405.214 119.733 405.219C119.767 405.224 119.8 405.241 119.824 405.266V405.266Z" fill="#37474F"/>
<path d="M131.249 401.017C134.807 406.909 137.882 413.097 140.884 419.285C143.885 425.474 146.788 431.563 149.69 437.726C151.346 441.259 153.001 444.804 154.458 448.423C154.481 448.47 154.484 448.525 154.467 448.575C154.449 448.625 154.413 448.666 154.366 448.689C154.318 448.711 154.263 448.715 154.214 448.697C154.164 448.68 154.123 448.643 154.1 448.596C150.629 442.655 147.591 436.442 144.478 430.315C141.365 424.189 138.302 418.149 135.412 411.998C133.72 408.465 132.139 404.908 130.718 401.264C130.699 401.196 130.704 401.124 130.733 401.059C130.763 400.995 130.814 400.943 130.878 400.913C130.942 400.884 131.015 400.878 131.083 400.897C131.151 400.916 131.21 400.958 131.249 401.017Z" fill="#37474F"/>
<path d="M136.388 399.276C139.957 405.167 143.02 411.356 146.022 417.556C149.023 423.757 151.926 429.834 154.829 435.997C156.484 439.53 158.139 443.075 159.596 446.681C159.608 446.705 159.614 446.731 159.616 446.757C159.617 446.783 159.614 446.809 159.605 446.833C159.597 446.858 159.583 446.881 159.566 446.9C159.548 446.92 159.527 446.936 159.504 446.947C159.48 446.958 159.455 446.965 159.429 446.967C159.403 446.968 159.377 446.964 159.352 446.956C159.327 446.947 159.304 446.934 159.285 446.916C159.266 446.899 159.25 446.878 159.238 446.854C155.767 440.913 152.729 434.7 149.616 428.574C146.504 422.447 143.44 416.407 140.55 410.256C138.87 406.724 137.277 403.166 135.856 399.523C135.837 399.455 135.842 399.382 135.872 399.318C135.901 399.253 135.952 399.202 136.016 399.172C136.08 399.142 136.153 399.136 136.221 399.155C136.289 399.174 136.348 399.217 136.388 399.276V399.276Z" fill="#37474F"/>
<path d="M144.947 389.703L173.764 443.754C173.764 443.754 182.41 445.619 193.131 440.654C216.859 429.698 256.582 404.204 276.444 384.626C296.972 364.382 317.118 222.486 317.118 222.486L268.699 194.546C268.699 194.546 243.551 328.352 234.312 338.011C225.975 346.731 177.63 365.815 154.841 377.747C150.098 380.274 146.543 384.571 144.947 389.703Z" fill="#EBA417"/>
<path d="M155.323 389.061C159.115 394.817 162.425 400.869 165.673 406.946C168.922 413.023 172.047 418.976 175.184 425.029C176.988 428.487 178.779 431.97 180.384 435.515C180.397 435.561 180.394 435.61 180.376 435.654C180.358 435.697 180.325 435.734 180.284 435.757C180.242 435.779 180.194 435.788 180.147 435.78C180.101 435.772 180.058 435.748 180.026 435.713C176.321 429.908 173.047 423.818 169.688 417.815C166.328 411.812 163.08 405.896 159.905 399.868C158.089 396.41 156.36 392.914 154.804 389.332C154.781 389.265 154.783 389.193 154.81 389.127C154.836 389.062 154.885 389.008 154.947 388.975C155.01 388.942 155.082 388.933 155.151 388.948C155.22 388.964 155.281 389.004 155.323 389.061V389.061Z" fill="#263238"/>
<path opacity="0.1" d="M252.197 275.548L317.118 222.436L268.699 194.546C268.699 194.546 260.794 236.814 252.197 275.548Z" fill="black"/>
<path opacity="0.1" d="M263.511 363.295C261.793 363.528 260.045 363.367 258.398 362.826C256.745 362.322 255.151 361.643 253.642 360.8C250.676 359.11 247.947 357.033 245.527 354.624C244.292 353.389 243.205 352.154 242.106 350.919C241.007 349.683 240.006 348.288 239.08 346.892C238.153 345.496 237.276 344.063 236.474 342.606C235.671 341.148 234.954 339.604 234.349 338.023C235.642 339.095 236.879 340.233 238.055 341.432C239.216 342.606 240.426 343.73 241.525 344.916C242.625 346.101 243.823 347.213 244.922 348.399L246.639 350.103C247.207 350.672 247.738 351.277 248.331 351.808C250.616 354.056 252.951 356.205 255.396 358.218C257.802 360.348 260.544 362.064 263.511 363.295Z" fill="black"/>
<path d="M288.11 377.139C293.487 365.812 291.33 353.537 283.294 349.723C275.258 345.909 264.385 352 259.009 363.327C253.633 374.654 255.789 386.928 263.825 390.743C271.862 394.557 282.734 388.466 288.11 377.139Z" fill="#EBA417"/>
<path opacity="0.1" d="M288.11 377.139C293.487 365.812 291.33 353.537 283.294 349.723C275.258 345.909 264.385 352 259.009 363.327C253.633 374.654 255.789 386.928 263.825 390.743C271.862 394.557 282.734 388.466 288.11 377.139Z" fill="black"/>
<path d="M173.307 248.066L158.584 187.431C155.829 175.833 153.211 165.705 151.37 160.603C151.37 160.603 151.37 160.603 151.37 160.517C151.066 159.274 150.483 158.117 149.666 157.133C149.666 157.133 149.666 157.133 149.579 157.133C145.577 155.613 52.2106 174.894 49.1845 176.673C46.1583 178.452 50.9508 187.209 55.1751 189.358C59.3993 191.507 98.406 200.092 98.406 200.092L113.697 260.529L173.307 248.066Z" fill="#455A64"/>
<path d="M147.936 148.042L143.095 148.956C143.168 149.503 143.143 150.06 143.02 150.598C142.777 151.646 142.189 152.583 141.352 153.258C140.514 153.933 139.474 154.308 138.398 154.324C137.323 154.34 136.273 153.995 135.416 153.344C134.559 152.693 133.944 151.775 133.67 150.734L129.273 151.562C129.349 152.131 129.32 152.708 129.187 153.266C128.942 154.315 128.352 155.252 127.512 155.925C126.671 156.599 125.629 156.971 124.552 156.981C123.474 156.991 122.425 156.638 121.572 155.98C120.72 155.323 120.112 154.397 119.849 153.353L115.439 154.168C115.55 154.747 115.55 155.343 115.439 155.922C115.148 157.165 114.376 158.241 113.292 158.915C112.209 159.589 110.902 159.805 109.658 159.516C108.789 159.32 107.992 158.882 107.361 158.253C106.729 157.623 106.288 156.828 106.089 155.959L101.692 156.787C101.773 157.392 101.744 158.007 101.605 158.602C101.36 159.661 100.764 160.605 99.9143 161.281C99.0641 161.957 98.01 162.325 96.9239 162.325C95.8377 162.325 94.7836 161.957 93.9334 161.281C93.0833 160.605 92.4873 159.661 92.2426 158.602L87.8454 159.43C87.9735 160.209 87.9076 161.008 87.6535 161.756C87.3994 162.503 86.9649 163.177 86.3885 163.717C85.812 164.256 85.1114 164.646 84.3487 164.85C83.5859 165.055 82.7845 165.068 82.0154 164.889C81.1225 164.679 80.308 164.219 79.6671 163.563C79.0261 162.907 78.5854 162.081 78.3963 161.184L74.0114 162.024C74.147 162.655 74.147 163.307 74.0114 163.938C73.7617 165.009 73.1533 165.962 72.2873 166.639C71.4214 167.316 70.3499 167.676 69.2507 167.66C68.1516 167.645 67.0909 167.253 66.2449 166.551C65.3988 165.85 64.8182 164.88 64.5994 163.802L60.2022 164.63C60.3502 165.285 60.3502 165.964 60.2022 166.619C59.9573 167.698 59.3473 168.66 58.4751 169.341C57.603 170.023 56.5223 170.383 55.4156 170.359C54.309 170.336 53.2443 169.931 52.4015 169.214C51.5587 168.496 50.9896 167.51 50.7902 166.421L46.6524 167.199L49.2586 176.623L149.752 157.145L147.936 148.042Z" fill="#37474F"/>
<path d="M153.507 177.513C150.834 178.367 148.014 178.655 145.224 178.359C142.434 178.064 139.736 177.191 137.302 175.796C133.349 173.326 129.434 169.509 128.149 164.432C128.149 164.297 128.384 164.21 128.445 164.358C132.571 173.424 143.601 179.254 153.421 177.216C153.455 177.216 153.489 177.227 153.517 177.248C153.545 177.269 153.566 177.299 153.576 177.332C153.585 177.366 153.584 177.401 153.572 177.434C153.559 177.467 153.537 177.494 153.507 177.513V177.513Z" fill="#37474F"/>
<path d="M155.063 189.605C148.517 191.742 141.798 193.311 135.078 194.842C128.359 196.374 121.788 197.819 115.118 199.239C111.314 200.055 107.485 200.87 103.631 201.475C103.578 201.487 103.524 201.477 103.478 201.448C103.433 201.419 103.401 201.373 103.39 201.321C103.378 201.268 103.388 201.214 103.417 201.168C103.446 201.123 103.492 201.091 103.544 201.08C110.115 199.042 116.847 197.498 123.529 195.843C130.212 194.188 136.77 192.619 143.428 191.161C147.245 190.322 151.061 189.58 154.94 189.037C155.008 189.036 155.075 189.058 155.129 189.101C155.183 189.144 155.22 189.203 155.235 189.27C155.249 189.337 155.24 189.407 155.209 189.468C155.178 189.529 155.126 189.578 155.063 189.605Z" fill="#37474F"/>
<path d="M155.594 195.065C149.036 197.201 142.316 198.77 135.609 200.302C128.902 201.833 122.307 203.279 115.649 204.699C111.832 205.514 108.003 206.329 104.15 206.935C104.097 206.944 104.043 206.933 103.999 206.903C103.955 206.873 103.925 206.826 103.915 206.774C103.905 206.722 103.916 206.667 103.947 206.623C103.977 206.579 104.023 206.549 104.075 206.539C110.647 204.501 117.378 202.957 124.048 201.315C130.718 199.672 137.302 198.091 143.947 196.621C147.776 195.793 151.592 195.052 155.471 194.496C155.539 194.495 155.606 194.518 155.66 194.56C155.714 194.603 155.751 194.663 155.766 194.73C155.78 194.797 155.771 194.867 155.74 194.928C155.709 194.989 155.657 195.037 155.594 195.065V195.065Z" fill="#37474F"/>
<path d="M317.192 222.523C317.192 222.523 303.778 237.221 292.39 248.77C284.077 257.218 276.394 264.407 274.356 264.444C272.046 264.444 261.535 263.333 258.052 262.876C258.052 262.876 206.249 319.866 179.656 333.651C170.552 338.369 141.958 333.527 133.683 319.545C120.256 296.855 106.632 262.567 101.655 241.001C99.4313 231.379 101.716 220.979 101.716 220.979L162.969 204.057C162.969 204.057 169.589 215.087 171.615 222.016C174.604 232.478 177.284 264.518 177.284 264.518C193.848 252.685 209.979 230.823 209.979 230.823C209.979 230.823 214.747 205.428 244.564 180.49L317.192 222.523Z" fill="#EBA417"/>
<path d="M274.294 264.136C266.539 262.854 258.686 262.25 250.826 262.332C250.772 262.345 250.723 262.375 250.688 262.419C250.653 262.463 250.634 262.517 250.634 262.573C250.634 262.629 250.653 262.683 250.688 262.727C250.723 262.771 250.772 262.801 250.826 262.814C258.595 263.641 266.426 264.667 274.22 265.074C274.282 265.079 274.344 265.072 274.403 265.053C274.462 265.034 274.516 265.003 274.563 264.963C274.61 264.923 274.649 264.874 274.677 264.819C274.705 264.764 274.722 264.704 274.727 264.642C274.732 264.58 274.724 264.518 274.705 264.459C274.686 264.401 274.656 264.346 274.615 264.299C274.575 264.252 274.526 264.214 274.471 264.185C274.416 264.157 274.356 264.14 274.294 264.136Z" fill="#263238"/>
<path d="M300.443 222.325C300.542 222.09 300.184 221.831 300.06 222.065C296.126 229.05 291.843 235.831 287.227 242.384C285.127 245.447 272.503 261.789 267.649 257.354C266.834 256.601 266.883 255.415 267.526 253.921C268.304 252.13 270.107 250.413 271.342 248.881C274.06 245.497 276.666 242.038 279.099 238.456C283.701 231.824 287.605 224.733 290.747 217.298C290.762 217.25 290.759 217.199 290.739 217.153C290.72 217.108 290.685 217.07 290.64 217.048C290.596 217.026 290.545 217.02 290.496 217.032C290.448 217.044 290.406 217.072 290.376 217.112C285.076 226.93 279.04 236.332 272.318 245.237C269.008 249.474 262.746 255.119 267.192 258.577C271.639 262.036 281.483 252.191 283.892 249.338C290.554 241.087 296.118 232.007 300.443 222.325Z" fill="#263238"/>
<path d="M267.55 257.91C266.376 258.834 265.262 259.832 264.215 260.899C263.313 261.669 262.559 262.599 261.992 263.641C261.906 263.851 262.153 264.012 262.338 263.938C263.429 263.351 264.425 262.601 265.29 261.714C266.365 260.813 267.452 259.936 268.489 258.997C268.561 258.935 268.619 258.86 268.661 258.776C268.704 258.692 268.729 258.6 268.736 258.506C268.743 258.412 268.731 258.317 268.702 258.228C268.672 258.138 268.625 258.056 268.563 257.984C268.502 257.913 268.427 257.854 268.342 257.812C268.258 257.77 268.166 257.744 268.072 257.737C267.978 257.731 267.884 257.742 267.794 257.772C267.705 257.801 267.622 257.848 267.55 257.91V257.91Z" fill="#263238"/>
<path d="M110.301 228.501C116.699 226.29 123.282 224.622 129.866 223.017C136.449 221.411 142.885 219.879 149.419 218.372C153.124 217.508 156.904 216.643 160.683 215.988C160.73 215.988 160.776 216.004 160.813 216.033C160.85 216.062 160.876 216.102 160.887 216.148C160.898 216.193 160.894 216.241 160.875 216.284C160.856 216.326 160.824 216.362 160.782 216.384C154.347 218.508 147.751 220.089 141.217 221.868C134.683 223.647 128.248 225.252 121.714 226.809C118.008 227.698 114.229 228.488 110.424 229.081C110.347 229.098 110.267 229.083 110.201 229.04C110.135 228.997 110.089 228.93 110.072 228.853C110.056 228.776 110.071 228.695 110.114 228.629C110.156 228.563 110.224 228.517 110.301 228.501V228.501Z" fill="#263238"/>
<path opacity="0.1" d="M167.588 311.418C166.493 309.61 165.857 307.562 165.735 305.452C165.612 304.414 165.612 303.377 165.55 302.327C165.488 301.277 165.55 300.252 165.649 299.214C165.953 295.102 166.647 291.028 167.724 287.048C168.77 283.094 170.091 279.219 171.676 275.45C173.223 271.658 175.082 268.002 177.235 264.518C176.605 268.594 175.604 272.522 174.629 276.425C173.653 280.328 172.603 284.195 171.565 288.048C170.528 291.902 169.54 295.756 168.712 299.634C168.329 301.561 167.922 303.513 167.687 305.464C167.32 307.429 167.287 309.442 167.588 311.418V311.418Z" fill="black"/>
<path d="M165.624 339.555C178.162 339.555 188.327 332.344 188.327 323.448C188.327 314.553 178.162 307.342 165.624 307.342C153.086 307.342 142.922 314.553 142.922 323.448C142.922 332.344 153.086 339.555 165.624 339.555Z" fill="#EBA417"/>
<path opacity="0.1" d="M165.624 339.555C178.162 339.555 188.327 332.344 188.327 323.448C188.327 314.553 178.162 307.342 165.624 307.342C153.086 307.342 142.922 314.553 142.922 323.448C142.922 332.344 153.086 339.555 165.624 339.555Z" fill="black"/>
<path d="M315.549 148.993C351.863 163.444 380.927 169.287 392.414 165.939C402.468 163 431.149 150.66 445.106 137.283C449.318 133.257 430.284 105.762 424.454 107.948C418.624 110.134 389.4 126.562 381.767 129.267C377.431 130.799 330.174 132.565 319.428 132.75C301.493 133.071 299.43 142.582 315.549 148.993Z" fill="#F7A9A0"/>
<path d="M463.967 118.966C462.646 120.991 463.696 121.708 467.772 120.312C471.848 118.916 486.756 109.986 489.437 115.458C492.117 120.93 470.909 133.232 463.93 135.023C456.952 136.814 445.106 137.283 445.106 137.283C448.762 134.059 456.877 125.389 463.967 118.966Z" fill="#455A64"/>
<path d="M424.454 107.948C435.077 99.3018 447.762 87.7529 463.078 85.3567C464.764 85.053 466.504 85.3226 468.019 86.1225C474.862 84.8873 477.48 87.8023 477.48 87.8023C484.199 88.6423 486.472 91.9525 486.472 91.9525C486.472 91.9525 494.513 90.6432 496.119 95.3739C497.935 100.685 486.237 101.488 480.123 105.848C466.055 115.841 448.861 133.998 445.082 137.283L424.454 107.948Z" fill="#455A64"/>
<path d="M458.051 105.959C462.133 102.988 466.413 100.298 470.86 97.906C475.887 95.5937 481.081 93.6614 486.398 92.1254C486.427 92.1124 486.45 92.0898 486.464 92.0615C486.478 92.0332 486.481 92.001 486.474 91.9703C486.467 91.9397 486.449 91.9126 486.424 91.8935C486.399 91.8745 486.368 91.8648 486.336 91.866C475.773 93.8169 465.947 98.6274 457.927 105.774C457.68 105.935 457.829 106.132 458.051 105.959Z" fill="#263238"/>
<path d="M450.776 98.3507C455.012 95.7939 462.498 91.3473 477.542 87.9629V87.8765C467.801 88.735 458.493 92.2939 450.665 98.1531C450.405 98.326 450.492 98.5236 450.776 98.3507Z" fill="#263238"/>
<path d="M446.946 94.1882C454.357 90.1121 459.483 88.4817 468.018 86.1719V86.0731C458.038 87.6788 454.604 89.3957 446.786 93.9535C446.564 94.1017 446.662 94.3487 446.946 94.1882Z" fill="#263238"/>
<path d="M424.454 107.948L445.106 137.283C444.17 141.212 442.13 144.79 439.227 147.597C434.385 152.278 396.638 167.916 384.953 168.088C373.269 168.261 327.617 156.774 311.263 148.499C294.909 140.223 303.667 133.059 315.648 132.244C327.629 131.429 377.765 128.538 380.643 127.834C383.521 127.13 407.298 112.123 412.337 109.504C417.377 106.886 424.454 107.948 424.454 107.948Z" fill="#EBA417"/>
<path opacity="0.1" d="M311.263 148.499C323.108 154.489 350.307 162.16 368.847 165.89L314.289 132.355C303.037 133.615 295.539 140.544 311.263 148.499Z" fill="black"/>
<path opacity="0.1" d="M416.673 111.357C419.785 115.347 422.688 119.497 425.566 123.709C428.444 127.921 431.235 131.96 434.052 136.06C435.657 138.42 437.275 140.804 438.795 143.224C438.906 143.385 438.795 143.471 438.646 143.323C435.571 139.321 432.681 135.146 429.753 130.972C426.826 126.797 423.985 122.782 421.107 118.62C419.489 116.248 417.908 113.864 416.401 111.419C416.302 111.271 416.512 111.147 416.673 111.357Z" fill="black"/>
<path d="M317.118 222.485L244.49 180.49C243.649 176.216 244.513 171.783 246.898 168.138C256.125 153.056 278.222 128.23 297.96 119.089C312.189 112.518 323.38 118.089 327.604 128.575C328.679 131.231 339.129 165.742 337.832 178.044C336.461 191.063 330.137 207.194 324.455 216.038C322.582 218.763 320.061 220.978 317.118 222.485Z" fill="#EBA417"/>
<path d="M316.537 226.907C317.612 227.068 320.823 221.139 320.527 220.274C320.23 219.41 244.774 176.204 244.218 176.105C243.662 176.006 239.994 183.293 240.661 183.825C241.328 184.356 315.104 226.685 316.537 226.907Z" fill="#EBA417"/>
<path opacity="0.1" d="M316.537 226.907C317.612 227.068 320.823 221.139 320.527 220.274C320.23 219.41 244.774 176.204 244.218 176.105C243.662 176.006 239.994 183.293 240.661 183.825C241.328 184.356 315.104 226.685 316.537 226.907Z" fill="black"/>
<path d="M301.851 178.205L338.425 185.9L339.24 153.489L302.666 145.794L301.851 178.205Z" fill="#EBA417"/>
<path opacity="0.2" d="M301.851 178.205L338.425 185.9L339.24 153.489L302.666 145.794L301.851 178.205Z" fill="black"/>
<path opacity="0.1" d="M301.851 178.205L306.483 179.18L307.298 146.769L302.666 145.794L301.851 178.205Z" fill="black"/>
<path opacity="0.1" d="M332.78 159.739C332.76 160.295 332.929 160.841 333.258 161.29C333.588 161.738 334.059 162.062 334.596 162.209C334.839 162.257 335.09 162.248 335.329 162.184C335.568 162.119 335.789 162.001 335.976 161.837C336.162 161.674 336.308 161.47 336.403 161.241C336.497 161.012 336.538 160.764 336.522 160.517C336.542 159.959 336.371 159.411 336.039 158.963C335.707 158.514 335.233 158.191 334.694 158.047C334.452 157.998 334.201 158.007 333.963 158.071C333.724 158.136 333.503 158.254 333.318 158.418C333.133 158.582 332.988 158.786 332.894 159.015C332.801 159.245 332.762 159.492 332.78 159.739V159.739Z" fill="black"/>
<path opacity="0.1" d="M332.607 166.656C332.587 167.212 332.755 167.758 333.085 168.207C333.415 168.655 333.886 168.979 334.422 169.126C334.666 169.177 334.918 169.17 335.158 169.106C335.399 169.043 335.621 168.924 335.808 168.76C335.994 168.596 336.141 168.391 336.235 168.161C336.329 167.931 336.368 167.682 336.349 167.434C336.369 166.878 336.201 166.331 335.871 165.883C335.542 165.435 335.07 165.111 334.534 164.964C334.29 164.913 334.038 164.92 333.798 164.983C333.558 165.047 333.335 165.165 333.148 165.329C332.962 165.494 332.816 165.699 332.722 165.929C332.628 166.159 332.588 166.408 332.607 166.656Z" fill="black"/>
<path opacity="0.1" d="M332.434 173.449C332.414 174.005 332.583 174.552 332.912 175C333.242 175.448 333.713 175.772 334.25 175.919C334.494 175.968 334.746 175.959 334.986 175.894C335.226 175.828 335.448 175.709 335.635 175.544C335.821 175.379 335.967 175.173 336.061 174.943C336.155 174.712 336.195 174.463 336.177 174.215C336.196 173.659 336.028 173.112 335.698 172.664C335.369 172.216 334.897 171.892 334.361 171.745C334.116 171.694 333.863 171.701 333.622 171.765C333.38 171.829 333.157 171.948 332.97 172.114C332.783 172.279 332.637 172.486 332.544 172.718C332.451 172.95 332.413 173.2 332.434 173.449V173.449Z" fill="black"/>
<path opacity="0.1" d="M326.95 158.516C326.93 159.072 327.099 159.618 327.428 160.067C327.758 160.515 328.229 160.839 328.765 160.986C329.009 161.037 329.261 161.03 329.501 160.966C329.742 160.903 329.964 160.784 330.151 160.62C330.337 160.456 330.484 160.251 330.578 160.021C330.672 159.791 330.711 159.542 330.692 159.294C330.712 158.738 330.544 158.192 330.214 157.743C329.885 157.295 329.413 156.971 328.877 156.824C328.634 156.776 328.383 156.785 328.143 156.849C327.904 156.914 327.683 157.032 327.497 157.196C327.311 157.359 327.164 157.563 327.07 157.792C326.975 158.021 326.934 158.269 326.95 158.516V158.516Z" fill="black"/>
<path opacity="0.1" d="M326.752 165.421C326.732 165.977 326.901 166.523 327.23 166.971C327.56 167.42 328.031 167.744 328.568 167.891C328.811 167.941 329.063 167.935 329.303 167.871C329.544 167.808 329.766 167.689 329.953 167.525C330.14 167.361 330.286 167.156 330.38 166.926C330.474 166.695 330.513 166.447 330.495 166.199C330.514 165.643 330.346 165.096 330.016 164.648C329.687 164.199 329.216 163.875 328.679 163.728C328.435 163.678 328.184 163.685 327.943 163.748C327.703 163.812 327.481 163.93 327.294 164.094C327.107 164.258 326.961 164.463 326.867 164.694C326.773 164.924 326.733 165.173 326.752 165.421V165.421Z" fill="black"/>
<path opacity="0.1" d="M326.604 172.226C326.585 172.784 326.755 173.332 327.087 173.78C327.419 174.229 327.893 174.552 328.432 174.697C328.675 174.748 328.926 174.741 329.166 174.678C329.406 174.614 329.628 174.495 329.814 174.331C330 174.167 330.145 173.961 330.237 173.731C330.33 173.501 330.367 173.252 330.347 173.004C330.366 172.448 330.198 171.902 329.868 171.454C329.539 171.005 329.067 170.681 328.531 170.534C328.288 170.486 328.037 170.495 327.798 170.56C327.558 170.624 327.337 170.743 327.151 170.906C326.965 171.07 326.819 171.274 326.724 171.503C326.629 171.731 326.588 171.979 326.604 172.226V172.226Z" fill="black"/>
<path opacity="0.1" d="M321.12 157.293C321.101 157.851 321.271 158.399 321.603 158.847C321.935 159.296 322.409 159.619 322.948 159.763C323.192 159.809 323.443 159.798 323.682 159.732C323.921 159.666 324.142 159.546 324.328 159.382C324.514 159.218 324.659 159.013 324.754 158.784C324.849 158.554 324.89 158.307 324.875 158.059C324.894 157.501 324.724 156.953 324.392 156.505C324.06 156.056 323.586 155.733 323.047 155.589C322.803 155.543 322.552 155.554 322.313 155.62C322.073 155.686 321.853 155.806 321.667 155.97C321.481 156.134 321.335 156.339 321.24 156.568C321.145 156.798 321.104 157.045 321.12 157.293V157.293Z" fill="black"/>
<path opacity="0.1" d="M320.959 164.185C320.939 164.741 321.108 165.288 321.438 165.736C321.767 166.185 322.238 166.508 322.775 166.656C323.018 166.703 323.269 166.695 323.508 166.63C323.747 166.566 323.969 166.447 324.155 166.284C324.341 166.12 324.487 165.916 324.582 165.687C324.677 165.458 324.718 165.211 324.702 164.963C324.721 164.406 324.551 163.858 324.219 163.409C323.887 162.961 323.413 162.638 322.874 162.493C322.631 162.445 322.381 162.453 322.142 162.518C321.903 162.582 321.683 162.701 321.497 162.865C321.312 163.029 321.167 163.233 321.074 163.462C320.98 163.691 320.941 163.939 320.959 164.185V164.185Z" fill="black"/>
<path opacity="0.1" d="M320.786 171.003C320.766 171.559 320.935 172.106 321.265 172.554C321.594 173.003 322.065 173.327 322.602 173.474C322.845 173.522 323.096 173.513 323.335 173.448C323.574 173.384 323.796 173.265 323.982 173.102C324.168 172.938 324.314 172.734 324.409 172.505C324.504 172.276 324.545 172.029 324.529 171.782C324.548 171.224 324.378 170.676 324.046 170.228C323.714 169.779 323.24 169.456 322.701 169.311C322.458 169.26 322.206 169.267 321.967 169.33C321.727 169.394 321.505 169.512 321.319 169.677C321.133 169.841 320.988 170.047 320.895 170.277C320.803 170.507 320.766 170.756 320.786 171.003Z" fill="black"/>
<path d="M333.336 62.8272C334.719 63.2348 341.006 63.5189 344.218 69.7935C347.268 75.7224 346.033 92.0266 346.305 95.7321C346.577 99.4376 351.097 100.673 351.53 104.909C351.9 108.615 349.134 109.455 348.454 111.987C347.935 113.951 349.455 117.274 347.157 119.941C345.07 122.412 342.217 121.325 340.351 121.881C338.486 122.437 336.646 126.34 333.262 126.92C329.877 127.501 327.419 124.055 325.678 123.795C323.936 123.536 321.046 128.514 315.475 127.143C309.904 125.771 309.04 120.732 306.829 119.41C304.618 118.089 298.541 118.78 296.33 115.433C294.119 112.086 294.292 108.133 293.329 106.503C292.365 104.872 289.796 104.699 288.832 101.155C287.869 97.6096 291.303 95.9915 292.192 93.1877C292.81 91.2237 291.328 89.0993 293.069 86.246C295.465 82.3182 300.48 84.0474 303.123 80.0702C305.211 76.9328 310.757 62.7778 320.243 60.5174C326.814 58.9858 333.336 62.8272 333.336 62.8272Z" fill="#263238"/>
<path d="M346.268 94.8675C346.504 95.6678 346.927 96.4003 347.503 97.0043L349.096 98.8818C350.193 100.057 351.101 101.394 351.789 102.847C352.102 103.538 352.251 104.292 352.225 105.05C352.2 105.809 352 106.551 351.641 107.219C351.242 107.885 350.737 108.482 350.146 108.985C349.477 109.537 348.891 110.182 348.405 110.9C348.05 111.753 347.98 112.697 348.207 113.593C348.343 114.42 348.516 115.211 348.615 116.063C348.769 116.818 348.773 117.596 348.627 118.353C348.481 119.109 348.187 119.83 347.762 120.473C347.322 121.074 346.691 121.51 345.971 121.708C345.209 121.901 344.417 121.947 343.637 121.844C342.834 121.77 342.031 121.609 341.167 121.498C340.348 121.29 339.484 121.342 338.696 121.646C339.484 121.458 340.308 121.488 341.08 121.732C341.883 121.918 342.674 122.152 343.489 122.288C344.329 122.455 345.193 122.455 346.033 122.288C346.906 122.078 347.684 121.582 348.244 120.88C348.765 120.18 349.136 119.38 349.331 118.529C349.527 117.679 349.544 116.797 349.381 115.94C349.294 115.1 349.121 114.297 349.01 113.469C348.83 112.769 348.878 112.029 349.146 111.357C349.838 110.122 351.48 109.233 352.295 107.652C352.706 106.868 352.92 105.997 352.92 105.113C352.92 104.229 352.706 103.358 352.295 102.575C351.508 101.098 350.491 99.7553 349.282 98.5977L347.54 96.8685C346.982 96.2966 346.549 95.6152 346.268 94.8675V94.8675Z" fill="#263238"/>
<path d="M310.695 67.4838C308.906 69.8047 307.256 72.2299 305.754 74.7466C304.939 75.9818 304.161 77.2169 303.284 78.3286C302.858 78.8812 302.378 79.3901 301.851 79.8479C301.739 79.955 301.609 80.0427 301.468 80.1072C301.335 80.1947 301.189 80.2613 301.036 80.3049C300.702 80.416 300.357 80.5025 300.011 80.589C298.565 80.9235 297.138 81.3358 295.737 81.8241C294.257 82.3117 292.963 83.2432 292.032 84.4921C291.579 85.1447 291.299 85.9009 291.216 86.6907C291.182 87.4576 291.291 88.2241 291.538 88.9511C292.095 90.3034 292.336 91.7652 292.242 93.2248C292.515 91.7639 292.426 90.2584 291.982 88.8399C291.797 88.1606 291.738 87.453 291.809 86.7525C291.922 86.0802 292.202 85.4472 292.624 84.9121C293.514 83.8595 294.683 83.0801 295.997 82.6641C297.343 82.1823 298.763 81.9229 300.208 81.5648C300.567 81.4659 300.937 81.3548 301.295 81.2312C301.692 81.0946 302.057 80.8805 302.37 80.6013C302.945 80.0958 303.463 79.5283 303.914 78.9091C304.81 77.7238 305.635 76.4865 306.384 75.2036L308.533 71.3622C309.182 70.0304 309.903 68.7356 310.695 67.4838V67.4838Z" fill="#263238"/>
<path d="M292.167 105.317C292.525 106.293 292.68 107.331 292.624 108.368C292.686 109.418 292.736 110.468 292.847 111.53C292.94 112.602 293.142 113.662 293.452 114.692C293.76 115.776 294.328 116.768 295.107 117.582C296.867 118.934 299.075 119.566 301.283 119.349C302.345 119.349 303.383 119.25 304.42 119.238C305.459 119.163 306.501 119.336 307.459 119.744C306.558 119.161 305.517 118.828 304.445 118.781C303.383 118.694 302.333 118.694 301.295 118.632C299.257 118.521 297.108 118.212 295.7 116.903C295.027 116.205 294.528 115.359 294.242 114.433C293.917 113.462 293.67 112.466 293.501 111.456C293.316 110.431 293.18 109.393 293.032 108.356C292.946 107.825 292.859 107.306 292.736 106.787C292.676 106.256 292.481 105.75 292.167 105.317V105.317Z" fill="#263238"/>
<path d="M309.534 122.931C309.633 124.512 315.191 135.628 322.194 136.518C324.467 136.802 326.555 124.413 326.555 124.413L326.913 123.536L331.989 111.184L318.612 98.9436L316.661 97.2885C316.661 97.2885 315.487 100.747 314.079 105.07L313.882 105.688C313.795 105.922 313.709 106.157 313.647 106.379C313.425 107.022 313.202 107.689 313.005 108.343C312.807 108.998 312.684 109.331 312.535 109.863L312.066 111.444C310.963 115.211 310.117 119.049 309.534 122.931V122.931Z" fill="#F7A9A0"/>
<path d="M331.989 111.197L327.123 123.029C320.636 119.417 315.815 113.417 313.684 106.305L314.079 105.07C315.5 100.759 316.661 97.3008 316.661 97.3008L318.612 98.9313L331.989 111.197Z" fill="#263238"/>
<path d="M351.838 93.6076C350.393 116.928 336.263 118.694 331.236 118.311C326.678 118.027 311.164 116.471 310.238 93.1259C309.311 69.7812 320.576 63.1483 330.989 63.2471C341.401 63.3459 353.284 70.3123 351.838 93.6076Z" fill="#F7A9A0"/>
<path d="M311.09 92.5454C314.796 93.3606 316.797 85.5419 316.797 85.5419C316.797 85.5419 324.492 86.6165 328.556 75.9076C327.875 79.183 326.252 82.1882 323.887 84.5538C323.887 84.5538 337.659 84.9861 344.885 74.413C344.885 74.413 341.809 79.8849 339.388 81.6511C339.388 81.6511 345.292 80.8483 348.701 76.6116C348.701 76.6116 350.183 83.4915 351.764 85.5543C351.764 85.5543 354.469 61.7278 332.125 61.2338C332.125 61.2338 318.23 60.2456 311.782 70.4728C305.334 80.7001 311.09 92.5454 311.09 92.5454Z" fill="#263238"/>
<path d="M313.795 95.2011C313.795 95.2011 309.83 87.2465 306.285 88.5558C302.74 89.8651 304.976 100.908 308.595 102.884C309.044 103.172 309.546 103.367 310.072 103.457C310.598 103.546 311.136 103.529 311.655 103.405C312.174 103.282 312.663 103.055 313.092 102.738C313.522 102.422 313.882 102.022 314.153 101.562L313.795 95.2011Z" fill="#F7A9A0"/>
<path d="M306.99 91.6931V91.7919C309.46 93.2865 310.572 95.9915 311.177 98.7336C311.06 98.4411 310.881 98.1773 310.653 97.9603C310.425 97.7432 310.153 97.578 309.855 97.476C309.557 97.3739 309.24 97.3375 308.927 97.369C308.614 97.4006 308.311 97.4995 308.039 97.659C308.023 97.6654 308.01 97.6765 308 97.6908C307.99 97.7051 307.985 97.722 307.985 97.7393C307.985 97.7565 307.99 97.7734 308 97.7877C308.01 97.802 308.023 97.8131 308.039 97.8195C308.527 97.756 309.023 97.8396 309.463 98.0596C309.903 98.2797 310.268 98.6262 310.51 99.0547C310.904 99.7935 311.218 100.572 311.448 101.377C311.547 101.636 311.992 101.574 311.943 101.29V101.192C312.585 97.7948 310.695 92.5454 306.99 91.6931Z" fill="#263238"/>
<path d="M311.411 102.229C311.366 102.531 311.202 102.803 310.957 102.986C310.712 103.169 310.405 103.247 310.102 103.205C309.813 103.162 309.551 103.01 309.369 102.781C309.188 102.551 309.101 102.261 309.126 101.97C309.169 101.667 309.33 101.393 309.575 101.209C309.819 101.025 310.126 100.945 310.429 100.988C310.732 101.03 311.006 101.192 311.19 101.436C311.374 101.68 311.454 101.988 311.411 102.291V102.229Z" fill="white"/>
<path d="M347.861 88.2841C347.349 88.1469 346.846 87.9778 346.354 87.7777C345.798 87.6817 345.29 87.4036 344.909 86.9872C344.815 86.8314 344.775 86.6489 344.795 86.4681C344.815 86.2872 344.894 86.118 345.02 85.9867C345.308 85.7689 345.648 85.6312 346.006 85.5878C346.364 85.5444 346.727 85.5968 347.058 85.7396C347.774 85.9163 348.397 86.3576 348.8 86.9748C348.888 87.1216 348.932 87.2911 348.925 87.4624C348.918 87.6336 348.861 87.7991 348.762 87.9384C348.662 88.0777 348.523 88.1847 348.363 88.2461C348.203 88.3075 348.029 88.3208 347.861 88.2841V88.2841Z" fill="#263238"/>
<path d="M332.706 87.8518C333.237 87.7406 333.706 87.543 334.225 87.3824C334.781 87.2931 335.293 87.0241 335.682 86.6166C335.78 86.4628 335.824 86.2807 335.806 86.0993C335.788 85.918 335.71 85.7479 335.584 85.6161C335.302 85.3936 334.966 85.249 334.61 85.197C334.255 85.145 333.892 85.1873 333.558 85.3197C332.831 85.4924 332.195 85.9336 331.779 86.5549C331.696 86.7005 331.656 86.8669 331.665 87.0345C331.673 87.2021 331.729 87.3637 331.827 87.5003C331.924 87.6368 332.059 87.7425 332.215 87.8048C332.371 87.8671 332.541 87.8834 332.706 87.8518V87.8518Z" fill="#263238"/>
<path d="M335.398 92.8172C335.398 92.8172 335.263 92.8172 335.263 92.9407C335.176 94.5094 334.818 96.2756 333.36 96.6462V96.745C335.127 96.6709 335.584 94.3117 335.398 92.8172Z" fill="#263238"/>
<path d="M334.163 91.0632C331.693 90.6556 331.026 95.6703 333.336 96.0038C335.645 96.3373 336.263 91.409 334.163 91.0632Z" fill="#263238"/>
<path d="M333.15 91.199C332.681 91.4337 332.187 91.8784 331.656 91.866C331.125 91.8537 330.643 91.2608 330.31 90.705C330.31 90.6432 330.223 90.705 330.211 90.705C330.075 91.154 330.115 91.6381 330.324 92.0582C330.533 92.4784 330.895 92.8028 331.335 92.9653C332.249 93.2124 333.039 92.4589 333.397 91.5202C333.472 91.3967 333.348 91.1126 333.15 91.199Z" fill="#263238"/>
<path d="M344.316 93.3235C344.316 93.3235 344.428 93.41 344.415 93.4718C344.156 95.0157 344.119 96.8314 345.453 97.5355C345.453 97.5355 345.453 97.6343 345.453 97.6219C343.748 97.1526 343.822 94.744 344.316 93.3235Z" fill="#263238"/>
<path d="M345.91 91.8907C348.442 92.0389 347.96 97.0661 345.626 96.9302C343.291 96.7944 343.798 91.7672 345.91 91.8907Z" fill="#263238"/>
<path d="M346.935 92.3107C347.305 92.6195 347.651 93.1383 348.17 93.2247C348.689 93.3112 349.183 92.8048 349.578 92.3107H349.652C349.591 93.2741 349.171 94.2499 348.232 94.3487C347.293 94.4475 346.836 93.5459 346.7 92.5701C346.626 92.4466 346.787 92.1995 346.935 92.3107Z" fill="#263238"/>
<path d="M334.015 105.502C334.324 105.935 334.608 106.49 335.164 106.639C335.737 106.723 336.321 106.69 336.88 106.54C336.942 106.54 336.979 106.54 336.942 106.626C336.666 106.89 336.325 107.074 335.954 107.161C335.582 107.248 335.194 107.234 334.83 107.12C334.531 106.984 334.279 106.763 334.105 106.483C333.932 106.204 333.844 105.88 333.854 105.552C333.853 105.532 333.859 105.513 333.87 105.497C333.881 105.481 333.897 105.47 333.915 105.464C333.934 105.458 333.954 105.459 333.972 105.466C333.99 105.473 334.005 105.486 334.015 105.502V105.502Z" fill="#263238"/>
<path d="M341.364 100.327C341.364 100.327 341.426 102.686 341.302 103.786C341.302 103.884 341.018 103.909 340.635 103.884C339.674 103.946 338.714 103.743 337.86 103.296C337.006 102.85 336.291 102.177 335.794 101.352C335.732 101.241 335.892 101.142 335.979 101.216C337.261 102.337 338.875 103.009 340.574 103.131C340.685 102.834 340.351 99.0919 340.574 99.1042C341.434 99.2674 342.266 99.5544 343.044 99.9565C343.044 95.0158 342.328 90.1492 342.426 85.2456C342.426 85.2063 342.442 85.1686 342.47 85.1408C342.498 85.113 342.535 85.0974 342.575 85.0974C342.614 85.0974 342.652 85.113 342.679 85.1408C342.707 85.1686 342.723 85.2063 342.723 85.2456C343.698 90.4575 344.149 95.754 344.069 101.056C343.946 101.649 341.784 100.574 341.364 100.327Z" fill="#263238"/>
<path d="M340.191 103.662C339.468 104.419 338.562 104.976 337.56 105.28C337.005 105.422 336.42 105.396 335.88 105.206C334.719 104.761 334.805 103.65 335.127 102.736C335.307 102.251 335.539 101.787 335.818 101.352C336.994 102.566 338.525 103.375 340.191 103.662V103.662Z" fill="#263238"/>
<path d="M337.56 105.28C337.005 105.422 336.42 105.396 335.88 105.206C334.719 104.761 334.805 103.65 335.127 102.736C335.758 102.826 336.341 103.127 336.782 103.588C337.224 104.049 337.497 104.645 337.56 105.28Z" fill="#FF98B9"/>
<path d="M299.578 121.609C299.606 123.7 300.199 125.745 301.295 127.525C304.791 133.294 314.178 137.975 323.528 136.839C329.47 136.11 333.138 133.714 334.991 130.663C328.785 131.806 322.404 131.589 316.29 130.026C310.176 128.463 304.474 125.591 299.578 121.609V121.609Z" fill="#455A64"/>
<path d="M291.538 113.889C302.135 131.984 332.965 139.988 352.382 123.659C366.092 112.098 372.145 88.2717 361.819 68.4472C346.824 39.7789 316.513 42.7309 299.579 56.7254C281.78 71.4734 283.521 100.154 291.538 113.889ZM312.214 68.0767C325.888 58.01 350.431 57.4048 362.362 77.7975C366.051 84.2131 367.284 91.7502 365.833 99.0069C364.381 106.264 360.343 112.746 354.47 117.249C338.733 129.045 313.944 123.499 305.483 110.616C299.072 100.846 297.75 78.7238 312.214 68.0767Z" fill="#EBA417"/>
<path opacity="0.1" d="M305.483 110.604C313.943 123.486 338.733 129.032 354.469 117.236C360.34 112.734 364.375 106.254 365.827 99.0001C367.279 91.7462 366.048 84.2119 362.362 77.7974C350.43 57.4048 325.888 58.0347 312.214 68.0766C297.75 78.7238 299.072 100.846 305.483 110.604Z" fill="#455A64"/>
<path opacity="0.1" d="M305.483 110.604C313.943 123.486 338.733 129.032 354.469 117.236C360.34 112.734 364.375 106.254 365.827 99.0001C367.279 91.7462 366.048 84.2119 362.362 77.7974C350.43 57.4048 325.888 58.0347 312.214 68.0766C297.75 78.7238 299.072 100.846 305.483 110.604Z" fill="#455A64"/>
<g opacity="0.2">
<path opacity="0.2" d="M334.892 61.2832C346.504 73.0853 356.789 86.1242 365.561 100.166C366.605 96.0113 366.735 91.6793 365.944 87.4688C360.256 79.2997 354.046 71.5061 347.355 64.1365C343.422 62.3941 339.191 61.4253 334.892 61.2832Z" fill="white"/>
<path opacity="0.2" d="M301.308 98.7213C301.844 102.94 303.267 106.998 305.483 110.628C308.296 114.649 312.134 117.843 316.599 119.88C312.015 112.47 306.904 105.399 301.308 98.7213V98.7213Z" fill="white"/>
<path opacity="0.2" d="M328.074 61.6661C341.688 75.044 353.508 90.132 363.239 106.552C363.474 106.095 363.684 105.638 363.881 105.169C354.313 89.23 342.79 74.5494 329.581 61.4685L328.074 61.6661Z" fill="white"/>
<path opacity="0.2" d="M301.962 83.961C313.46 95.872 323.382 109.21 331.483 123.647C331.952 123.647 332.422 123.647 332.903 123.647C324.547 108.7 314.255 94.9203 302.296 82.6641C302.172 83.1087 302.049 83.5287 301.962 83.961Z" fill="white"/>
<path opacity="0.2" d="M300.888 92.6566C300.888 93.2494 300.888 93.8176 300.888 94.3982C308.268 102.83 314.882 111.903 320.65 121.51C321.206 121.708 321.762 121.893 322.33 122.054C316.151 111.584 308.969 101.739 300.888 92.6566V92.6566Z" fill="white"/>
<path opacity="0.2" d="M306.619 73.7091C321.371 87.9822 333.866 104.417 343.674 122.449C345.102 122.066 346.501 121.583 347.861 121.004C337.69 102.309 324.682 85.3046 309.299 70.5964C308.33 71.5658 307.434 72.6063 306.619 73.7091V73.7091Z" fill="white"/>
</g>
<path d="M280.545 98.2149C278.519 93.2742 278.482 83.047 283.645 78.1804C288.585 73.5855 296.972 73.1285 300.703 83.5534C303.272 90.7544 301.234 99.0424 297.256 102.859C291.624 108.257 283.212 104.823 280.545 98.2149Z" fill="#EBA417"/>
<path opacity="0.1" d="M280.545 98.2149C278.519 93.2742 278.482 83.047 283.645 78.1804C288.585 73.5855 296.972 73.1285 300.703 83.5534C303.272 90.7544 301.234 99.0424 297.256 102.859C291.624 108.257 283.212 104.823 280.545 98.2149Z" fill="black"/>
<path d="M278.988 96.3991C277.432 92.5454 277.407 84.7391 281.372 80.9965C285.077 77.4639 291.611 77.1181 294.477 85.122C296.453 90.6555 294.885 97.029 291.821 99.944C287.511 104.107 281.051 101.463 278.988 96.3991Z" fill="#EBA417"/>
<path d="M288.907 139.334C294.07 170.04 318.551 209.738 326.703 218.681C339.116 232.354 396.095 217.693 407.705 215.47C412.646 214.531 397.392 171.312 392.08 172.239C387.449 173.029 343.909 185.826 342.612 184.294C341.562 183.059 320.515 154.65 305.421 135.937C292.402 119.793 287.548 131.206 288.907 139.334Z" fill="#F7A9A0"/>
<path d="M381.828 174.845L389.795 172.733C392.355 171.983 394.79 170.859 397.021 169.398C405.951 164.247 431 157.429 453.616 175.574C462.263 182.503 461.2 191.631 450.924 186.011C443.673 182.058 438.992 178.699 436.275 178.069C436.275 178.069 441.215 189.704 437.337 195.929C433.966 201.371 430.214 206.568 426.109 211.48C425.04 210.93 424.004 210.315 423.009 209.64C421.271 211.961 418.912 213.744 416.204 214.782C413.496 215.82 410.55 216.071 407.705 215.507L394.872 218.249L381.828 174.845Z" fill="#455A64"/>
<path d="M406.322 165.853C411.621 166.89 422.824 169.299 431.297 174.499C440.709 180.218 457.31 193.792 453.011 200.697C449.862 205.761 443.068 201.129 443.068 201.129C443.068 201.129 448.738 208.182 444.896 212.135C441.388 215.741 436.349 211.851 436.349 211.851C436.349 211.851 439.054 216.717 435.015 219.533C430.148 222.93 425.269 212.122 417.377 211.332C415.598 211.122 406.322 165.853 406.322 165.853Z" fill="#455A64"/>
<path d="M423.59 183.392C428.419 185.196 438.325 192.038 443.081 200.87C443.179 201.067 443.081 201.253 442.957 201.092C437.219 194.46 430.699 188.545 423.54 183.479C423.54 183.479 423.54 183.38 423.59 183.392Z" fill="#263238"/>
<path d="M418.155 193.064C422.157 195.052 432.05 202.624 436.559 211.665C436.658 211.875 436.559 212.061 436.423 211.888C431.043 204.967 424.894 198.681 418.093 193.15C418.093 193.15 418.031 193.039 418.155 193.064Z" fill="#263238"/>
<path d="M381.829 174.845L394.872 218.212C394.872 218.212 392.266 223.152 380.593 225.4C368.921 227.648 334.892 228.254 327.049 221.065C319.205 213.876 297.503 176.599 289.932 149.017C282.36 121.436 298.244 124.017 306.57 135.962C314.895 147.906 342.649 182.552 343.476 182.898C344.304 183.244 363.77 175.808 370.823 174.375C377.876 172.943 381.829 174.845 381.829 174.845Z" fill="#EBA417"/>
<path d="M338.647 177.229C336.695 175.24 334.867 173.165 333.052 171.053C331.236 168.941 329.482 166.816 327.74 164.667C325.999 162.518 324.307 160.332 322.664 158.084L320.193 154.724C319.403 153.575 318.588 152.451 317.847 151.278C318.822 152.266 319.736 153.303 320.688 154.316L323.43 157.441C325.258 159.529 326.999 161.678 328.741 163.827C330.482 165.976 332.187 168.175 333.817 170.423C335.448 172.671 337.128 174.907 338.647 177.229Z" fill="#263238"/>
<path d="M323.047 157.676C322.513 156.845 322.062 155.964 321.7 155.045C321.335 154.127 321.018 153.192 320.749 152.241C321.108 152.61 321.415 153.026 321.663 153.476C321.911 153.906 322.13 154.352 322.318 154.81C322.701 155.724 322.947 156.69 323.047 157.676V157.676Z" fill="#263238"/>
<path d="M323.627 217.174C321.947 215.173 320.403 213.049 318.847 210.937C317.291 208.824 315.87 206.613 314.438 204.415C311.584 200.018 308.966 195.472 306.458 190.828C303.951 186.184 301.691 181.478 299.64 176.636C297.565 171.82 295.747 166.897 294.193 161.888C295.28 164.284 296.194 166.73 297.318 169.089C298.442 171.448 299.43 173.881 300.579 176.216L303.988 183.269C305.223 185.591 306.347 187.925 307.619 190.198C310.016 194.842 312.647 199.351 315.302 203.785C317.958 208.219 320.737 212.814 323.627 217.174Z" fill="#263238"/>
<path d="M297.54 170.584C296.712 169.955 295.958 169.234 295.292 168.434C294.615 167.646 294.035 166.779 293.563 165.853C294.39 166.479 295.141 167.2 295.799 168.002C296.485 168.786 297.07 169.654 297.54 170.584V170.584Z" fill="#263238"/>
<path opacity="0.1" d="M375.48 179.625C377.234 184.356 378.741 189.197 380.21 194.039C381.68 198.881 383.125 203.624 384.546 208.417C385.361 211.171 386.176 213.926 386.893 216.692C386.893 216.878 386.781 216.915 386.72 216.692C385.003 211.937 383.521 207.083 381.977 202.278C380.433 197.473 378.963 192.718 377.518 187.925C376.69 185.171 375.912 182.429 375.22 179.637C375.146 179.427 375.381 179.366 375.48 179.625Z" fill="black"/>
<path d="M413.066 360.886L419.872 362.146L421.391 369.322L422.91 362.146L429.716 360.886L422.935 359.231L421.391 352.462L419.835 359.231L413.066 360.886Z" fill="#61DCFB"/>
<path d="M82.5341 341.618L89.3276 342.877L90.8592 350.041L92.3784 342.877L99.1719 341.605L92.4031 339.95L90.8592 333.181L89.3029 339.95L82.5341 341.618Z" fill="#61DCFB"/>
<path d="M343.563 245.484L350.369 246.744L351.888 253.921L353.407 246.744L360.213 245.484L353.444 243.829L351.888 237.06L350.344 243.829L343.563 245.484Z" fill="#61DCFB"/>
<path d="M477.74 318.668L481.544 319.372L482.396 323.374L483.248 319.372L487.04 318.668L483.261 317.742L482.396 313.95L481.531 317.742L477.74 318.668Z" fill="#61DCFB"/>
<path d="M189.154 471.212L192.958 471.916L193.798 475.918L194.651 471.916L198.455 471.212L194.663 470.285L193.798 466.493L192.934 470.285L189.154 471.212Z" fill="#61DCFB"/>
<path d="M468.439 138.21L472.243 138.914L473.095 142.928L473.935 138.914L477.74 138.21L473.96 137.283L473.095 133.504L472.218 137.283L468.439 138.21Z" fill="#61DCFB"/>
<path d="M19.8368 224.437L23.6411 225.141L24.4934 229.155L25.3457 225.141L29.15 224.437L25.358 223.511L24.4934 219.731L23.6288 223.511L19.8368 224.437Z" fill="#61DCFB"/>
<path d="M40.2419 428.487L44.0462 429.191L44.8985 433.193L45.7507 429.191L49.5427 428.487L45.7631 427.561L44.8985 423.769L44.0339 427.561L40.2419 428.487Z" fill="#61DCFB"/>
<path d="M453.765 239.765L457.569 240.457L458.421 244.471L459.261 240.457L463.066 239.753L459.286 238.839L458.421 235.047L457.544 238.839L453.765 239.765Z" fill="#61DCFB"/>
<path d="M154.965 47.4122L158.769 48.1163L159.621 52.1182L160.473 48.1163L164.278 47.3999L160.486 46.4735L159.621 42.6939L158.757 46.4735L154.965 47.4122Z" fill="#61DCFB"/>
<path d="M303.84 354.76L307.644 355.464L308.496 359.466L309.349 355.464L313.153 354.76L309.361 353.833L308.496 350.041L307.632 353.833L303.84 354.76Z" fill="#61DCFB"/>
<path d="M180.15 479.883C180.441 479.883 180.721 479.999 180.927 480.205C181.133 480.411 181.249 480.69 181.249 480.982C181.249 481.274 181.133 481.553 180.927 481.759C180.721 481.965 180.441 482.081 180.15 482.081C179.858 482.081 179.578 481.965 179.372 481.759C179.166 481.553 179.05 481.274 179.05 480.982C179.05 480.69 179.166 480.411 179.372 480.205C179.578 479.999 179.858 479.883 180.15 479.883V479.883Z" fill="#61DCFB"/>
<path d="M376.801 273.127C377.074 273.156 377.327 273.285 377.511 273.489C377.694 273.693 377.796 273.958 377.796 274.233C377.796 274.507 377.694 274.772 377.511 274.976C377.327 275.18 377.074 275.309 376.801 275.338C376.528 275.309 376.276 275.18 376.092 274.976C375.908 274.772 375.807 274.507 375.807 274.233C375.807 273.958 375.908 273.693 376.092 273.489C376.276 273.285 376.528 273.156 376.801 273.127V273.127Z" fill="#61DCFB"/>
<path d="M119.243 471.607C119.516 471.636 119.769 471.765 119.953 471.969C120.136 472.173 120.238 472.438 120.238 472.713C120.238 472.987 120.136 473.252 119.953 473.456C119.769 473.66 119.516 473.789 119.243 473.818C118.97 473.789 118.718 473.66 118.534 473.456C118.35 473.252 118.249 472.987 118.249 472.713C118.249 472.438 118.35 472.173 118.534 471.969C118.718 471.765 118.97 471.636 119.243 471.607V471.607Z" fill="#61DCFB"/>
<path d="M429.271 287.567C429.544 287.595 429.797 287.724 429.981 287.929C430.164 288.133 430.266 288.397 430.266 288.672C430.266 288.947 430.164 289.211 429.981 289.416C429.797 289.62 429.544 289.749 429.271 289.778C428.998 289.749 428.746 289.62 428.562 289.416C428.378 289.211 428.277 288.947 428.277 288.672C428.277 288.397 428.378 288.133 428.562 287.929C428.746 287.724 428.998 287.595 429.271 287.567V287.567Z" fill="#61DCFB"/>
<path d="M207.768 460.058C207.974 460.058 208.172 460.14 208.318 460.286C208.464 460.432 208.546 460.63 208.546 460.836C208.546 461.043 208.464 461.241 208.318 461.387C208.172 461.533 207.974 461.615 207.768 461.615C207.562 461.615 207.364 461.533 207.218 461.387C207.072 461.241 206.99 461.043 206.99 460.836C206.99 460.63 207.072 460.432 207.218 460.286C207.364 460.14 207.562 460.058 207.768 460.058V460.058Z" fill="#61DCFB"/>
<path d="M52.0377 55.132C52.2441 55.132 52.442 55.214 52.588 55.36C52.7339 55.5059 52.8159 55.7038 52.8159 55.9102C52.8159 56.1166 52.7339 56.3145 52.588 56.4604C52.442 56.6064 52.2441 56.6884 52.0377 56.6884C51.8314 56.6884 51.6334 56.6064 51.4875 56.4604C51.3416 56.3145 51.2596 56.1166 51.2596 55.9102C51.2596 55.7038 51.3416 55.5059 51.4875 55.36C51.6334 55.214 51.8314 55.132 52.0377 55.132Z" fill="#61DCFB"/>
<path d="M352.802 305.785C353.008 305.785 353.206 305.867 353.352 306.013C353.498 306.159 353.58 306.357 353.58 306.564C353.58 306.77 353.498 306.968 353.352 307.114C353.206 307.26 353.008 307.342 352.802 307.342C352.596 307.342 352.398 307.26 352.252 307.114C352.106 306.968 352.024 306.77 352.024 306.564C352.024 306.357 352.106 306.159 352.252 306.013C352.398 305.867 352.596 305.785 352.802 305.785V305.785Z" fill="#61DCFB"/>
<path d="M326.369 291.606C326.903 291.646 327.402 291.887 327.766 292.28C328.13 292.673 328.332 293.188 328.332 293.724C328.332 294.259 328.13 294.775 327.766 295.168C327.402 295.561 326.903 295.801 326.369 295.842C325.836 295.801 325.337 295.561 324.973 295.168C324.609 294.775 324.407 294.259 324.407 293.724C324.407 293.188 324.609 292.673 324.973 292.28C325.337 291.887 325.836 291.646 326.369 291.606Z" fill="#61DCFB"/>
<path d="M171.615 126.216L178.42 127.476L179.94 134.64L181.459 127.476L188.265 126.204L181.484 124.549L179.94 117.78L178.383 124.549L171.615 126.216Z" fill="#61DCFB"/>
<path d="M244.132 16.0635L247.936 16.7676L248.788 20.7819L249.641 16.7676L253.445 16.0635L249.653 15.1372L248.788 11.3575L247.924 15.1372L244.132 16.0635Z" fill="#61DCFB"/>
<path d="M13.5993 118.966C13.8723 118.995 14.125 119.123 14.3086 119.328C14.4923 119.532 14.5939 119.797 14.5939 120.071C14.5939 120.346 14.4923 120.611 14.3086 120.815C14.125 121.019 13.8723 121.148 13.5993 121.177C13.3262 121.148 13.0735 121.019 12.8899 120.815C12.7062 120.611 12.6046 120.346 12.6046 120.071C12.6046 119.797 12.7062 119.532 12.8899 119.328C13.0735 119.123 13.3262 118.995 13.5993 118.966V118.966Z" fill="#61DCFB"/>
<path d="M30.9163 411.331C31.2079 411.331 31.4875 411.446 31.6936 411.653C31.8998 411.859 32.0156 412.138 32.0156 412.43C32.0156 412.722 31.8998 413.001 31.6936 413.207C31.4875 413.413 31.2079 413.529 30.9163 413.529C30.6248 413.529 30.3452 413.413 30.139 413.207C29.9328 413.001 29.817 412.722 29.817 412.43C29.817 412.138 29.9328 411.859 30.139 411.653C30.3452 411.446 30.6248 411.331 30.9163 411.331V411.331Z" fill="#61DCFB"/>
<path d="M57.4848 211.381C57.778 211.381 58.0592 211.498 58.2665 211.705C58.4738 211.912 58.5903 212.194 58.5903 212.487C58.5903 212.78 58.4738 213.061 58.2665 213.268C58.0592 213.476 57.778 213.592 57.4848 213.592C57.1916 213.592 56.9104 213.476 56.7031 213.268C56.4958 213.061 56.3793 212.78 56.3793 212.487C56.3793 212.194 56.4958 211.912 56.7031 211.705C56.9104 211.498 57.1916 211.381 57.4848 211.381Z" fill="#61DCFB"/>
<path d="M101.136 358.774C101.342 358.774 101.54 358.856 101.686 359.002C101.832 359.148 101.914 359.346 101.914 359.553C101.914 359.759 101.832 359.957 101.686 360.103C101.54 360.249 101.342 360.331 101.136 360.331C100.929 360.331 100.732 360.249 100.586 360.103C100.44 359.957 100.358 359.759 100.358 359.553C100.358 359.346 100.44 359.148 100.586 359.002C100.732 358.856 100.929 358.774 101.136 358.774V358.774Z" fill="#61DCFB"/>
<path d="M265.636 458.737C265.842 458.737 266.04 458.819 266.186 458.965C266.332 459.11 266.414 459.308 266.414 459.515C266.414 459.721 266.332 459.919 266.186 460.065C266.04 460.211 265.842 460.293 265.636 460.293C265.43 460.293 265.232 460.211 265.086 460.065C264.94 459.919 264.858 459.721 264.858 459.515C264.858 459.308 264.94 459.11 265.086 458.965C265.232 458.819 265.43 458.737 265.636 458.737V458.737Z" fill="#61DCFB"/>
<path d="M381.458 101.957C381.664 101.957 381.862 102.039 382.008 102.185C382.154 102.331 382.236 102.529 382.236 102.736C382.236 102.942 382.154 103.14 382.008 103.286C381.862 103.432 381.664 103.514 381.458 103.514C381.252 103.514 381.054 103.432 380.908 103.286C380.762 103.14 380.68 102.942 380.68 102.736C380.68 102.529 380.762 102.331 380.908 102.185C381.054 102.039 381.252 101.957 381.458 101.957V101.957Z" fill="#61DCFB"/>
<path d="M240.574 54.2551C240.781 54.2551 240.979 54.337 241.125 54.483C241.271 54.6289 241.353 54.8268 241.353 55.0332C241.353 55.2396 241.271 55.4375 241.125 55.5834C240.979 55.7294 240.781 55.8114 240.574 55.8114C240.368 55.8114 240.17 55.7294 240.024 55.5834C239.878 55.4375 239.796 55.2396 239.796 55.0332C239.796 54.8268 239.878 54.6289 240.024 54.483C240.17 54.337 240.368 54.2551 240.574 54.2551V54.2551Z" fill="#61DCFB"/>
<path d="M193.811 331.069C194.371 331.069 194.908 331.292 195.304 331.688C195.7 332.084 195.923 332.621 195.923 333.182C195.923 333.742 195.7 334.279 195.304 334.675C194.908 335.071 194.371 335.294 193.811 335.294C193.25 335.294 192.713 335.071 192.317 334.675C191.921 334.279 191.698 333.742 191.698 333.182C191.698 332.621 191.921 332.084 192.317 331.688C192.713 331.292 193.25 331.069 193.811 331.069V331.069Z" fill="#61DCFB"/>
<path d="M472.156 171.399C472.717 171.399 473.254 171.621 473.65 172.017C474.046 172.413 474.269 172.951 474.269 173.511C474.269 174.071 474.046 174.608 473.65 175.004C473.254 175.4 472.717 175.623 472.156 175.623C471.596 175.623 471.059 175.4 470.663 175.004C470.267 174.608 470.044 174.071 470.044 173.511C470.044 172.951 470.267 172.413 470.663 172.017C471.059 171.621 471.596 171.399 472.156 171.399Z" fill="#61DCFB"/>
<path d="M39.6983 356.662C40.2585 356.662 40.7957 356.885 41.1918 357.281C41.5879 357.677 41.8105 358.214 41.8105 358.774C41.8105 359.334 41.5879 359.872 41.1918 360.268C40.7957 360.664 40.2585 360.886 39.6983 360.886C39.1381 360.886 38.6009 360.664 38.2048 360.268C37.8087 359.872 37.5862 359.334 37.5862 358.774C37.5862 358.214 37.8087 357.677 38.2048 357.281C38.6009 356.885 39.1381 356.662 39.6983 356.662V356.662Z" fill="#61DCFB"/>
<path d="M168.65 160.257L172.454 160.961L173.307 164.976L174.147 160.961L177.951 160.257L174.171 159.331L173.307 155.551L172.43 159.331L168.65 160.257Z" fill="#61DCFB"/>
<path d="M298.01 467.111L301.814 467.815L302.666 471.829L303.506 467.815L307.311 467.111L303.531 466.185L302.666 462.405L301.802 466.185L298.01 467.111Z" fill="#61DCFB"/>
<path d="M314.857 417.729C315.149 417.729 315.429 417.845 315.635 418.051C315.841 418.257 315.957 418.537 315.957 418.828C315.957 419.12 315.841 419.399 315.635 419.605C315.429 419.812 315.149 419.927 314.857 419.927C314.566 419.927 314.286 419.812 314.08 419.605C313.874 419.399 313.758 419.12 313.758 418.828C313.758 418.537 313.874 418.257 314.08 418.051C314.286 417.845 314.566 417.729 314.857 417.729V417.729Z" fill="#61DCFB"/>
<path d="M357.817 388.406C358.108 388.406 358.388 388.522 358.594 388.728C358.8 388.934 358.916 389.214 358.916 389.505C358.916 389.797 358.8 390.076 358.594 390.283C358.388 390.489 358.108 390.604 357.817 390.604C357.525 390.604 357.246 390.489 357.039 390.283C356.833 390.076 356.718 389.797 356.718 389.505C356.718 389.214 356.833 388.934 357.039 388.728C357.246 388.522 357.525 388.406 357.817 388.406Z" fill="#61DCFB"/>
<path d="M221.874 439.036L225.678 439.74L226.53 443.742L227.383 439.74L231.187 439.023L227.395 438.109L226.53 434.317L225.666 438.109L221.874 439.036Z" fill="#61DCFB"/>
<path d="M378.419 83.9856C378.692 84.0145 378.945 84.1434 379.129 84.3475C379.312 84.5517 379.414 84.8165 379.414 85.0911C379.414 85.3656 379.312 85.6305 379.129 85.8346C378.945 86.0387 378.692 86.1677 378.419 86.1966C378.146 86.1677 377.894 86.0387 377.71 85.8346C377.526 85.6305 377.425 85.3656 377.425 85.0911C377.425 84.8165 377.526 84.5517 377.71 84.3475C377.894 84.1434 378.146 84.0145 378.419 83.9856Z" fill="#61DCFB"/>
<path d="M404.938 391.877C405.13 391.901 405.305 391.994 405.433 392.138C405.56 392.283 405.63 392.469 405.63 392.661C405.63 392.854 405.56 393.04 405.433 393.184C405.305 393.328 405.13 393.421 404.938 393.445C404.747 393.421 404.572 393.328 404.444 393.184C404.317 393.04 404.247 392.854 404.247 392.661C404.247 392.469 404.317 392.283 404.444 392.138C404.572 391.994 404.747 391.901 404.938 391.877V391.877Z" fill="#61DCFB"/>
<path d="M73.1097 259.294L76.914 259.998L77.7663 264.012L78.6062 259.998L82.4105 259.294L78.6309 258.367L77.7663 254.588L76.9017 258.367L73.1097 259.294Z" fill="#61DCFB"/>
<path d="M29.15 319.965C29.4415 319.965 29.7211 320.081 29.9273 320.287C30.1334 320.493 30.2493 320.773 30.2493 321.064C30.2493 321.356 30.1334 321.636 29.9273 321.842C29.7211 322.048 29.4415 322.164 29.15 322.164C28.8584 322.164 28.5788 322.048 28.3726 321.842C28.1665 321.636 28.0507 321.356 28.0507 321.064C28.0507 320.773 28.1665 320.493 28.3726 320.287C28.5788 320.081 28.8584 319.965 29.15 319.965V319.965Z" fill="#61DCFB"/>
<path d="M181.224 238.777C181.516 238.777 181.796 238.893 182.002 239.099C182.208 239.305 182.324 239.585 182.324 239.877C182.324 240.168 182.208 240.448 182.002 240.654C181.796 240.86 181.516 240.976 181.224 240.976C180.933 240.976 180.653 240.86 180.447 240.654C180.241 240.448 180.125 240.168 180.125 239.877C180.125 239.585 180.241 239.305 180.447 239.099C180.653 238.893 180.933 238.777 181.224 238.777Z" fill="#61DCFB"/>
<path d="M52.0377 127.402C52.2441 127.402 52.442 127.484 52.588 127.63C52.7339 127.776 52.8159 127.974 52.8159 128.18C52.8159 128.386 52.7339 128.584 52.588 128.73C52.442 128.876 52.2441 128.958 52.0377 128.958C51.8314 128.958 51.6334 128.876 51.4875 128.73C51.3416 128.584 51.2596 128.386 51.2596 128.18C51.2596 127.974 51.3416 127.776 51.4875 127.63C51.6334 127.484 51.8314 127.402 52.0377 127.402V127.402Z" fill="#61DCFB"/>
<path d="M42.0575 120.226C42.5913 120.266 43.0901 120.507 43.454 120.9C43.8179 121.293 44.0201 121.808 44.0201 122.344C44.0201 122.879 43.8179 123.395 43.454 123.788C43.0901 124.18 42.5913 124.421 42.0575 124.462C41.5236 124.421 41.0248 124.18 40.6609 123.788C40.297 123.395 40.0948 122.879 40.0948 122.344C40.0948 121.808 40.297 121.293 40.6609 120.9C41.0248 120.507 41.5236 120.266 42.0575 120.226Z" fill="#61DCFB"/>
<path d="M401.974 218.533C402.534 218.533 403.071 218.755 403.467 219.152C403.864 219.548 404.086 220.085 404.086 220.645C404.086 221.205 403.864 221.742 403.467 222.139C403.071 222.535 402.534 222.757 401.974 222.757C401.414 222.757 400.877 222.535 400.48 222.139C400.084 221.742 399.862 221.205 399.862 220.645C399.862 220.085 400.084 219.548 400.48 219.152C400.877 218.755 401.414 218.533 401.974 218.533V218.533Z" fill="#61DCFB"/>
</svg>
