<svg width="157" height="22" viewBox="0 0 157 22" fill="none" xmlns="http://www.w3.org/2000/svg">
<path d="M9.70312 17.0625V9.8125C9.70312 9.30208 9.625 8.86458 9.46875 8.5C9.3125 8.13542 9.06771 7.84896 8.73438 7.64062C8.40104 7.43229 7.96875 7.32812 7.4375 7.32812C6.98958 7.32812 6.59896 7.40625 6.26562 7.5625C5.94271 7.71875 5.69271 7.94271 5.51562 8.23438C5.34896 8.52604 5.26562 8.88542 5.26562 9.3125H0.390625C0.390625 8.55208 0.5625 7.84375 0.90625 7.1875C1.25 6.53125 1.73958 5.95312 2.375 5.45312C3.02083 4.95312 3.79167 4.56771 4.6875 4.29688C5.58333 4.01562 6.58854 3.875 7.70312 3.875C9.02604 3.875 10.2031 4.09896 11.2344 4.54688C12.276 4.98438 13.099 5.64583 13.7031 6.53125C14.3073 7.40625 14.6094 8.51042 14.6094 9.84375V16.9219C14.6094 17.9427 14.6667 18.7448 14.7812 19.3281C14.9062 19.901 15.0833 20.401 15.3125 20.8281V21.0938H10.3906C10.1615 20.6042 9.98958 20 9.875 19.2812C9.76042 18.5521 9.70312 17.8125 9.70312 17.0625ZM10.3125 10.7812L10.3438 13.4688H7.92188C7.38021 13.4688 6.91146 13.5365 6.51562 13.6719C6.13021 13.8073 5.81771 13.9948 5.57812 14.2344C5.33854 14.4635 5.16146 14.7344 5.04688 15.0469C4.94271 15.349 4.89062 15.6823 4.89062 16.0469C4.89062 16.3906 4.97396 16.7031 5.14062 16.9844C5.30729 17.2552 5.53646 17.4688 5.82812 17.625C6.11979 17.7812 6.45833 17.8594 6.84375 17.8594C7.47917 17.8594 8.02083 17.7344 8.46875 17.4844C8.92708 17.2344 9.28125 16.9323 9.53125 16.5781C9.78125 16.2135 9.90625 15.875 9.90625 15.5625L11.0781 17.5938C10.8906 18.0104 10.6615 18.4427 10.3906 18.8906C10.1198 19.3281 9.77604 19.7396 9.35938 20.125C8.94271 20.5 8.4375 20.8073 7.84375 21.0469C7.26042 21.2865 6.55729 21.4062 5.73438 21.4062C4.67188 21.4062 3.70833 21.1927 2.84375 20.7656C1.97917 20.3281 1.28646 19.7292 0.765625 18.9688C0.255208 18.2083 0 17.3333 0 16.3438C0 15.4583 0.161458 14.6719 0.484375 13.9844C0.807292 13.2969 1.29167 12.7135 1.9375 12.2344C2.59375 11.7552 3.41667 11.3958 4.40625 11.1562C5.39583 10.9062 6.55208 10.7812 7.875 10.7812H10.3125Z" fill="#E1E1E6"/>
<path d="M26.8125 16.3906C26.8125 16.0781 26.7135 15.8021 26.5156 15.5625C26.3281 15.3229 25.9844 15.1042 25.4844 14.9062C24.9948 14.7083 24.3021 14.5104 23.4062 14.3125C22.5625 14.1354 21.776 13.9062 21.0469 13.625C20.3177 13.3333 19.6823 12.9844 19.1406 12.5781C18.599 12.1615 18.1771 11.6719 17.875 11.1094C17.5729 10.5365 17.4219 9.88542 17.4219 9.15625C17.4219 8.44792 17.5729 7.77604 17.875 7.14062C18.1875 6.50521 18.6354 5.94271 19.2188 5.45312C19.8125 4.96354 20.5312 4.57812 21.375 4.29688C22.2292 4.01562 23.1979 3.875 24.2812 3.875C25.7708 3.875 27.0573 4.10938 28.1406 4.57812C29.224 5.03646 30.0573 5.68229 30.6406 6.51562C31.224 7.33854 31.5156 8.28125 31.5156 9.34375H26.6406C26.6406 8.90625 26.5573 8.52604 26.3906 8.20312C26.224 7.88021 25.9688 7.63021 25.625 7.45312C25.2812 7.26562 24.8281 7.17188 24.2656 7.17188C23.8281 7.17188 23.4427 7.25 23.1094 7.40625C22.7865 7.55208 22.5312 7.75521 22.3438 8.01562C22.1667 8.27604 22.0781 8.57812 22.0781 8.92188C22.0781 9.16146 22.1302 9.38021 22.2344 9.57812C22.349 9.76562 22.5208 9.94271 22.75 10.1094C22.9896 10.2656 23.2969 10.4062 23.6719 10.5312C24.0573 10.6562 24.526 10.776 25.0781 10.8906C26.2552 11.1094 27.3281 11.4167 28.2969 11.8125C29.276 12.2083 30.0573 12.7552 30.6406 13.4531C31.2344 14.151 31.5312 15.0729 31.5312 16.2188C31.5312 16.9688 31.3594 17.6562 31.0156 18.2812C30.6823 18.9062 30.1979 19.4531 29.5625 19.9219C28.9271 20.3906 28.1667 20.7552 27.2812 21.0156C26.3958 21.276 25.3958 21.4062 24.2812 21.4062C22.6875 21.4062 21.3385 21.1198 20.2344 20.5469C19.1302 19.974 18.2969 19.2552 17.7344 18.3906C17.1823 17.5156 16.9062 16.6198 16.9062 15.7031H21.4844C21.5052 16.2656 21.6458 16.724 21.9062 17.0781C22.1771 17.4323 22.526 17.6927 22.9531 17.8594C23.3802 18.0156 23.8594 18.0938 24.3906 18.0938C24.9219 18.0938 25.3646 18.0208 25.7188 17.875C26.0729 17.7292 26.3438 17.5312 26.5312 17.2812C26.7188 17.0208 26.8125 16.724 26.8125 16.3906Z" fill="#E1E1E6"/>
<path d="M42.8438 4.1875V7.60938H32.8125V4.1875H42.8438ZM35.1094 0H40V15.7969C40 16.2656 40.0573 16.625 40.1719 16.875C40.2865 17.125 40.474 17.3021 40.7344 17.4062C40.9948 17.5 41.3281 17.5469 41.7344 17.5469C42.026 17.5469 42.276 17.5365 42.4844 17.5156C42.6927 17.4948 42.8854 17.4688 43.0625 17.4375V20.9688C42.6458 21.1042 42.2031 21.2083 41.7344 21.2812C41.2656 21.3646 40.7552 21.4062 40.2031 21.4062C39.151 21.4062 38.2396 21.2344 37.4688 20.8906C36.7083 20.5469 36.125 20.0052 35.7188 19.2656C35.3125 18.5156 35.1094 17.5417 35.1094 16.3438V0Z" fill="#E1E1E6"/>
<path d="M50.0781 8.125V21.0938H45.2031V4.1875H49.7812L50.0781 8.125ZM55.125 4.0625L55.0469 8.60938C54.8385 8.57812 54.5677 8.55208 54.2344 8.53125C53.901 8.5 53.6146 8.48438 53.375 8.48438C52.75 8.48438 52.2083 8.5625 51.75 8.71875C51.3021 8.86458 50.9271 9.08333 50.625 9.375C50.3333 9.66667 50.1146 10.0312 49.9688 10.4688C49.8229 10.8958 49.75 11.3906 49.75 11.9531L48.8281 11.5C48.8281 10.3854 48.9375 9.36458 49.1562 8.4375C49.375 7.51042 49.6927 6.70833 50.1094 6.03125C50.526 5.34375 51.0365 4.8125 51.6406 4.4375C52.2448 4.0625 52.9323 3.875 53.7031 3.875C53.9531 3.875 54.2083 3.89062 54.4688 3.92188C54.7292 3.95312 54.9479 4 55.125 4.0625Z" fill="#E1E1E6"/>
<path d="M55.8906 12.8125V12.4844C55.8906 11.2448 56.0677 10.1042 56.4219 9.0625C56.776 8.01042 57.2969 7.09896 57.9844 6.32812C58.6719 5.55729 59.5156 4.95833 60.5156 4.53125C61.5156 4.09375 62.6615 3.875 63.9531 3.875C65.2656 3.875 66.4219 4.09375 67.4219 4.53125C68.4323 4.95833 69.2812 5.55729 69.9688 6.32812C70.6562 7.09896 71.1771 8.01042 71.5312 9.0625C71.8854 10.1042 72.0625 11.2448 72.0625 12.4844V12.8125C72.0625 14.0417 71.8854 15.1823 71.5312 16.2344C71.1771 17.276 70.6562 18.1875 69.9688 18.9688C69.2812 19.7396 68.4375 20.3385 67.4375 20.7656C66.4375 21.1927 65.2865 21.4062 63.9844 21.4062C62.6927 21.4062 61.5417 21.1927 60.5312 20.7656C59.5208 20.3385 58.6719 19.7396 57.9844 18.9688C57.2969 18.1875 56.776 17.276 56.4219 16.2344C56.0677 15.1823 55.8906 14.0417 55.8906 12.8125ZM60.7812 12.4844V12.8125C60.7812 13.4792 60.8333 14.1042 60.9375 14.6875C61.0521 15.2708 61.2344 15.7812 61.4844 16.2188C61.7344 16.6562 62.0625 17 62.4688 17.25C62.8854 17.4896 63.3906 17.6094 63.9844 17.6094C64.5781 17.6094 65.0781 17.4896 65.4844 17.25C65.8906 17 66.2188 16.6562 66.4688 16.2188C66.7188 15.7812 66.8958 15.2708 67 14.6875C67.1146 14.1042 67.1719 13.4792 67.1719 12.8125V12.4844C67.1719 11.8281 67.1146 11.2135 67 10.6406C66.8958 10.0573 66.7188 9.54167 66.4688 9.09375C66.2188 8.64583 65.8854 8.29688 65.4688 8.04688C65.0625 7.79688 64.5573 7.67188 63.9531 7.67188C63.3698 7.67188 62.875 7.79688 62.4688 8.04688C62.0625 8.29688 61.7344 8.64583 61.4844 9.09375C61.2344 9.54167 61.0521 10.0573 60.9375 10.6406C60.8333 11.2135 60.7812 11.8281 60.7812 12.4844Z" fill="#E1E1E6"/>
<path d="M74.8906 18.7812C74.8906 18.0729 75.1406 17.4792 75.6406 17C76.151 16.5208 76.8125 16.2812 77.625 16.2812C78.4479 16.2812 79.1042 16.5208 79.5938 17C80.0938 17.4792 80.3438 18.0729 80.3438 18.7812C80.3438 19.4792 80.0938 20.0677 79.5938 20.5469C79.1042 21.026 78.4479 21.2656 77.625 21.2656C76.8125 21.2656 76.151 21.026 75.6406 20.5469C75.1406 20.0677 74.8906 19.4792 74.8906 18.7812Z" fill="#E1E1E6"/>
<path d="M88.9062 7.79688V21.0938H84.0156V4.1875H88.6094L88.9062 7.79688ZM88.2656 12.0469L87.0469 12.0781C87.0469 10.8073 87.2031 9.66667 87.5156 8.65625C87.8281 7.64583 88.2708 6.78646 88.8438 6.07812C89.4271 5.35938 90.1198 4.8125 90.9219 4.4375C91.7344 4.0625 92.6302 3.875 93.6094 3.875C94.401 3.875 95.125 3.98958 95.7812 4.21875C96.4375 4.44792 97 4.81771 97.4688 5.32812C97.9479 5.82812 98.3125 6.49479 98.5625 7.32812C98.8125 8.15104 98.9375 9.16667 98.9375 10.375V21.0938H94.0312V10.3594C94.0312 9.65104 93.9323 9.10417 93.7344 8.71875C93.5365 8.33333 93.2448 8.0625 92.8594 7.90625C92.4844 7.75 92.026 7.67188 91.4844 7.67188C90.9115 7.67188 90.4219 7.78646 90.0156 8.01562C89.6094 8.23438 89.276 8.54167 89.0156 8.9375C88.7552 9.33333 88.5625 9.79688 88.4375 10.3281C88.3229 10.8594 88.2656 11.4323 88.2656 12.0469Z" fill="#E1E1E6"/>
<path d="M110.094 21.4062C108.75 21.4062 107.547 21.1927 106.484 20.7656C105.422 20.3385 104.521 19.75 103.781 19C103.052 18.2396 102.495 17.3646 102.109 16.375C101.724 15.3854 101.531 14.3281 101.531 13.2031V12.6094C101.531 11.349 101.708 10.1875 102.062 9.125C102.417 8.0625 102.932 7.14062 103.609 6.35938C104.297 5.56771 105.141 4.95833 106.141 4.53125C107.141 4.09375 108.281 3.875 109.562 3.875C110.76 3.875 111.828 4.07292 112.766 4.46875C113.703 4.85417 114.495 5.41146 115.141 6.14062C115.786 6.85938 116.276 7.72917 116.609 8.75C116.953 9.76042 117.125 10.8958 117.125 12.1562V14.1562H103.5V11.0156H112.344V10.6406C112.344 10.0469 112.234 9.52604 112.016 9.07812C111.807 8.63021 111.495 8.28646 111.078 8.04688C110.672 7.79688 110.156 7.67188 109.531 7.67188C108.938 7.67188 108.443 7.79688 108.047 8.04688C107.651 8.29688 107.333 8.65104 107.094 9.10938C106.865 9.55729 106.698 10.0833 106.594 10.6875C106.49 11.2812 106.438 11.9219 106.438 12.6094V13.2031C106.438 13.8594 106.526 14.4583 106.703 15C106.88 15.5417 107.141 16.0052 107.484 16.3906C107.828 16.776 108.245 17.0781 108.734 17.2969C109.224 17.5156 109.781 17.625 110.406 17.625C111.177 17.625 111.911 17.4792 112.609 17.1875C113.307 16.8854 113.911 16.4167 114.422 15.7812L116.703 18.3906C116.359 18.8906 115.875 19.375 115.25 19.8438C114.635 20.3021 113.896 20.6771 113.031 20.9688C112.167 21.2604 111.188 21.4062 110.094 21.4062Z" fill="#E1E1E6"/>
<path d="M124.484 16.3906L127.797 4.1875H130.875L129.828 9.625L126.516 21.0938H124L124.484 16.3906ZM122.969 4.1875L125.188 16.3438L125.422 21.0938H122.422L118.266 4.1875H122.969ZM133.875 16.1094L136.078 4.1875H140.781L136.656 21.0938H133.656L133.875 16.1094ZM131.25 4.1875L134.594 16.3281L135.078 21.0938H132.531L129.25 9.64062L128.25 4.1875H131.25Z" fill="#E1E1E6"/>
<path d="M151.875 16.3906C151.875 16.0781 151.776 15.8021 151.578 15.5625C151.391 15.3229 151.047 15.1042 150.547 14.9062C150.057 14.7083 149.365 14.5104 148.469 14.3125C147.625 14.1354 146.839 13.9062 146.109 13.625C145.38 13.3333 144.745 12.9844 144.203 12.5781C143.661 12.1615 143.24 11.6719 142.938 11.1094C142.635 10.5365 142.484 9.88542 142.484 9.15625C142.484 8.44792 142.635 7.77604 142.938 7.14062C143.25 6.50521 143.698 5.94271 144.281 5.45312C144.875 4.96354 145.594 4.57812 146.438 4.29688C147.292 4.01562 148.26 3.875 149.344 3.875C150.833 3.875 152.12 4.10938 153.203 4.57812C154.286 5.03646 155.12 5.68229 155.703 6.51562C156.286 7.33854 156.578 8.28125 156.578 9.34375H151.703C151.703 8.90625 151.62 8.52604 151.453 8.20312C151.286 7.88021 151.031 7.63021 150.688 7.45312C150.344 7.26562 149.891 7.17188 149.328 7.17188C148.891 7.17188 148.505 7.25 148.172 7.40625C147.849 7.55208 147.594 7.75521 147.406 8.01562C147.229 8.27604 147.141 8.57812 147.141 8.92188C147.141 9.16146 147.193 9.38021 147.297 9.57812C147.411 9.76562 147.583 9.94271 147.812 10.1094C148.052 10.2656 148.359 10.4062 148.734 10.5312C149.12 10.6562 149.589 10.776 150.141 10.8906C151.318 11.1094 152.391 11.4167 153.359 11.8125C154.339 12.2083 155.12 12.7552 155.703 13.4531C156.297 14.151 156.594 15.0729 156.594 16.2188C156.594 16.9688 156.422 17.6562 156.078 18.2812C155.745 18.9062 155.26 19.4531 154.625 19.9219C153.99 20.3906 153.229 20.7552 152.344 21.0156C151.458 21.276 150.458 21.4062 149.344 21.4062C147.75 21.4062 146.401 21.1198 145.297 20.5469C144.193 19.974 143.359 19.2552 142.797 18.3906C142.245 17.5156 141.969 16.6198 141.969 15.7031H146.547C146.568 16.2656 146.708 16.724 146.969 17.0781C147.24 17.4323 147.589 17.6927 148.016 17.8594C148.443 18.0156 148.922 18.0938 149.453 18.0938C149.984 18.0938 150.427 18.0208 150.781 17.875C151.135 17.7292 151.406 17.5312 151.594 17.2812C151.781 17.0208 151.875 16.724 151.875 16.3906Z" fill="#E1E1E6"/>
</svg>
